ISO-10303-21;
HEADER;
FILE_DESCRIPTION((''),'2;1');
FILE_NAME('MERGED_MOUNT_10_6','2026-10-08T13:32:13',('samma'),(''),
'CREO PARAMETRIC BY PTC INC, 2026092','CREO PARAMETRIC BY PTC INC, 2026092','');
FILE_SCHEMA(('CONFIG_CONTROL_DESIGN'));
ENDSEC;
DATA;
#1=CARTESIAN_POINT('',(-3.75E1,0.E0,-2.3E1));
#2=DIRECTION('',(0.E0,-1.E0,0.E0));
#3=DIRECTION('',(1.E0,0.E0,0.E0));
#4=AXIS2_PLACEMENT_3D('',#1,#2,#3);
#6=CARTESIAN_POINT('',(-3.75E1,0.E0,-2.3E1));
#7=DIRECTION('',(0.E0,-1.E0,0.E0));
#8=DIRECTION('',(-1.E0,0.E0,0.E0));
#9=AXIS2_PLACEMENT_3D('',#6,#7,#8);
#11=CARTESIAN_POINT('',(3.75E1,0.E0,-2.3E1));
#12=DIRECTION('',(0.E0,-1.E0,0.E0));
#13=DIRECTION('',(1.E0,0.E0,0.E0));
#14=AXIS2_PLACEMENT_3D('',#11,#12,#13);
#16=CARTESIAN_POINT('',(3.75E1,0.E0,-2.3E1));
#17=DIRECTION('',(0.E0,-1.E0,0.E0));
#18=DIRECTION('',(-1.E0,0.E0,0.E0));
#19=AXIS2_PLACEMENT_3D('',#16,#17,#18);
#21=CARTESIAN_POINT('',(-6.25E1,0.E0,-2.3E1));
#22=DIRECTION('',(0.E0,-1.E0,0.E0));
#23=DIRECTION('',(1.E0,0.E0,0.E0));
#24=AXIS2_PLACEMENT_3D('',#21,#22,#23);
#26=CARTESIAN_POINT('',(-6.25E1,0.E0,-2.3E1));
#27=DIRECTION('',(0.E0,-1.E0,0.E0));
#28=DIRECTION('',(-1.E0,0.E0,0.E0));
#29=AXIS2_PLACEMENT_3D('',#26,#27,#28);
#31=CARTESIAN_POINT('',(6.25E1,0.E0,-2.3E1));
#32=DIRECTION('',(0.E0,-1.E0,0.E0));
#33=DIRECTION('',(1.E0,0.E0,0.E0));
#34=AXIS2_PLACEMENT_3D('',#31,#32,#33);
#36=CARTESIAN_POINT('',(6.25E1,0.E0,-2.3E1));
#37=DIRECTION('',(0.E0,-1.E0,0.E0));
#38=DIRECTION('',(-1.E0,0.E0,0.E0));
#39=AXIS2_PLACEMENT_3D('',#36,#37,#38);
#41=CARTESIAN_POINT('',(-6.25E1,0.E0,2.85E1));
#42=DIRECTION('',(0.E0,-1.E0,0.E0));
#43=DIRECTION('',(1.E0,0.E0,0.E0));
#44=AXIS2_PLACEMENT_3D('',#41,#42,#43);
#46=CARTESIAN_POINT('',(-6.25E1,0.E0,2.85E1));
#47=DIRECTION('',(0.E0,-1.E0,0.E0));
#48=DIRECTION('',(-1.E0,0.E0,0.E0));
#49=AXIS2_PLACEMENT_3D('',#46,#47,#48);
#51=CARTESIAN_POINT('',(6.25E1,0.E0,2.85E1));
#52=DIRECTION('',(0.E0,-1.E0,0.E0));
#53=DIRECTION('',(1.E0,0.E0,0.E0));
#54=AXIS2_PLACEMENT_3D('',#51,#52,#53);
#56=CARTESIAN_POINT('',(6.25E1,0.E0,2.85E1));
#57=DIRECTION('',(0.E0,-1.E0,0.E0));
#58=DIRECTION('',(-1.E0,0.E0,0.E0));
#59=AXIS2_PLACEMENT_3D('',#56,#57,#58);
#61=CARTESIAN_POINT('',(0.E0,0.E0,1.7E1));
#62=DIRECTION('',(0.E0,-1.E0,0.E0));
#63=DIRECTION('',(-1.E0,0.E0,0.E0));
#64=AXIS2_PLACEMENT_3D('',#61,#62,#63);
#66=CARTESIAN_POINT('',(0.E0,0.E0,1.7E1));
#67=DIRECTION('',(0.E0,-1.E0,0.E0));
#68=DIRECTION('',(1.E0,0.E0,0.E0));
#69=AXIS2_PLACEMENT_3D('',#66,#67,#68);
#71=DIRECTION('',(0.E0,0.E0,1.E0));
#72=VECTOR('',#71,4.2E1);
#73=CARTESIAN_POINT('',(-7.75E1,0.E0,-7.E0));
#74=LINE('',#73,#72);
#75=DIRECTION('',(1.E0,0.E0,0.E0));
#76=VECTOR('',#75,1.55E2);
#77=CARTESIAN_POINT('',(-7.75E1,0.E0,3.5E1));
#78=LINE('',#77,#76);
#79=DIRECTION('',(0.E0,0.E0,-1.E0));
#80=VECTOR('',#79,4.2E1);
#81=CARTESIAN_POINT('',(7.75E1,0.E0,3.5E1));
#82=LINE('',#81,#80);
#83=DIRECTION('',(0.E0,0.E0,1.E0));
#84=VECTOR('',#83,3.E0);
#85=CARTESIAN_POINT('',(5.4E1,0.E0,-7.E0));
#86=LINE('',#85,#84);
#87=DIRECTION('',(1.E0,0.E0,0.E0));
#88=VECTOR('',#87,5.E-1);
#89=CARTESIAN_POINT('',(5.4E1,0.E0,-4.E0));
#90=LINE('',#89,#88);
#91=DIRECTION('',(0.E0,0.E0,1.E0));
#92=VECTOR('',#91,6.E0);
#93=CARTESIAN_POINT('',(5.45E1,0.E0,-4.E0));
#94=LINE('',#93,#92);
#95=DIRECTION('',(-1.E0,0.E0,0.E0));
#96=VECTOR('',#95,2.E0);
#97=CARTESIAN_POINT('',(5.45E1,0.E0,2.E0));
#98=LINE('',#97,#96);
#99=DIRECTION('',(0.E0,0.E0,-1.E0));
#100=VECTOR('',#99,1.1E1);
#101=CARTESIAN_POINT('',(5.25E1,0.E0,2.E0));
#102=LINE('',#101,#100);
#103=DIRECTION('',(-1.E0,0.E0,0.E0));
#104=VECTOR('',#103,2.5E1);
#105=CARTESIAN_POINT('',(7.75E1,0.E0,-9.E0));
#106=LINE('',#105,#104);
#107=DIRECTION('',(0.E0,0.E0,-1.E0));
#108=VECTOR('',#107,2.6E1);
#109=CARTESIAN_POINT('',(7.75E1,0.E0,-9.E0));
#110=LINE('',#109,#108);
#111=DIRECTION('',(-1.E0,0.E0,0.E0));
#112=VECTOR('',#111,1.55E2);
#113=CARTESIAN_POINT('',(7.75E1,0.E0,-3.5E1));
#114=LINE('',#113,#112);
#115=DIRECTION('',(0.E0,0.E0,1.E0));
#116=VECTOR('',#115,2.6E1);
#117=CARTESIAN_POINT('',(-7.75E1,0.E0,-3.5E1));
#118=LINE('',#117,#116);
#119=DIRECTION('',(1.E0,0.E0,0.E0));
#120=VECTOR('',#119,2.5E1);
#121=CARTESIAN_POINT('',(-7.75E1,0.E0,-9.E0));
#122=LINE('',#121,#120);
#123=DIRECTION('',(0.E0,0.E0,-1.E0));
#124=VECTOR('',#123,1.1E1);
#125=CARTESIAN_POINT('',(-5.25E1,0.E0,2.E0));
#126=LINE('',#125,#124);
#127=DIRECTION('',(1.E0,0.E0,0.E0));
#128=VECTOR('',#127,2.E0);
#129=CARTESIAN_POINT('',(-5.45E1,0.E0,2.E0));
#130=LINE('',#129,#128);
#131=DIRECTION('',(0.E0,0.E0,1.E0));
#132=VECTOR('',#131,6.E0);
#133=CARTESIAN_POINT('',(-5.45E1,0.E0,-4.E0));
#134=LINE('',#133,#132);
#135=DIRECTION('',(-1.E0,0.E0,0.E0));
#136=VECTOR('',#135,5.E-1);
#137=CARTESIAN_POINT('',(-5.4E1,0.E0,-4.E0));
#138=LINE('',#137,#136);
#139=DIRECTION('',(0.E0,0.E0,1.E0));
#140=VECTOR('',#139,3.E0);
#141=CARTESIAN_POINT('',(-5.4E1,0.E0,-7.E0));
#142=LINE('',#141,#140);
#143=CARTESIAN_POINT('',(-3.75E1,6.E0,-2.3E1));
#144=DIRECTION('',(0.E0,1.E0,0.E0));
#145=DIRECTION('',(-1.E0,0.E0,0.E0));
#146=AXIS2_PLACEMENT_3D('',#143,#144,#145);
#148=DIRECTION('',(0.E0,1.E0,0.E0));
#149=VECTOR('',#148,6.E0);
#150=CARTESIAN_POINT('',(-3.475E1,0.E0,-2.3E1));
#151=LINE('',#150,#149);
#152=CARTESIAN_POINT('',(-3.75E1,6.E0,-2.3E1));
#153=DIRECTION('',(0.E0,1.E0,0.E0));
#154=DIRECTION('',(1.E0,0.E0,0.E0));
#155=AXIS2_PLACEMENT_3D('',#152,#153,#154);
#157=CARTESIAN_POINT('',(-3.75E1,6.E0,-2.3E1));
#158=DIRECTION('',(0.E0,1.E0,0.E0));
#159=DIRECTION('',(-1.E0,0.E0,0.E0));
#160=AXIS2_PLACEMENT_3D('',#157,#158,#159);
#162=CARTESIAN_POINT('',(3.75E1,6.E0,-2.3E1));
#163=DIRECTION('',(0.E0,1.E0,0.E0));
#164=DIRECTION('',(1.E0,0.E0,0.E0));
#165=AXIS2_PLACEMENT_3D('',#162,#163,#164);
#167=CARTESIAN_POINT('',(3.75E1,6.E0,-2.3E1));
#168=DIRECTION('',(0.E0,1.E0,0.E0));
#169=DIRECTION('',(-1.E0,0.E0,0.E0));
#170=AXIS2_PLACEMENT_3D('',#167,#168,#169);
#172=CARTESIAN_POINT('',(0.E0,6.E0,1.7E1));
#173=DIRECTION('',(0.E0,1.E0,0.E0));
#174=DIRECTION('',(1.E0,0.E0,0.E0));
#175=AXIS2_PLACEMENT_3D('',#172,#173,#174);
#177=CARTESIAN_POINT('',(0.E0,6.E0,1.7E1));
#178=DIRECTION('',(0.E0,1.E0,0.E0));
#179=DIRECTION('',(-1.E0,0.E0,0.E0));
#180=AXIS2_PLACEMENT_3D('',#177,#178,#179);
#182=DIRECTION('',(0.E0,-1.E0,0.E0));
#183=VECTOR('',#182,4.E0);
#184=CARTESIAN_POINT('',(-3.25E1,1.E1,-2.3E1));
#185=LINE('',#184,#183);
#186=CARTESIAN_POINT('',(-6.25E1,1.E1,-2.3E1));
#187=DIRECTION('',(0.E0,-1.E0,0.E0));
#188=DIRECTION('',(1.E0,0.E0,0.E0));
#189=AXIS2_PLACEMENT_3D('',#186,#187,#188);
#191=CARTESIAN_POINT('',(-6.25E1,1.E1,-2.3E1));
#192=DIRECTION('',(0.E0,-1.E0,0.E0));
#193=DIRECTION('',(-1.E0,0.E0,0.E0));
#194=AXIS2_PLACEMENT_3D('',#191,#192,#193);
#196=CARTESIAN_POINT('',(6.25E1,1.E1,-2.3E1));
#197=DIRECTION('',(0.E0,-1.E0,0.E0));
#198=DIRECTION('',(1.E0,0.E0,0.E0));
#199=AXIS2_PLACEMENT_3D('',#196,#197,#198);
#201=CARTESIAN_POINT('',(6.25E1,1.E1,-2.3E1));
#202=DIRECTION('',(0.E0,-1.E0,0.E0));
#203=DIRECTION('',(-1.E0,0.E0,0.E0));
#204=AXIS2_PLACEMENT_3D('',#201,#202,#203);
#206=CARTESIAN_POINT('',(-6.25E1,1.E1,2.85E1));
#207=DIRECTION('',(0.E0,-1.E0,0.E0));
#208=DIRECTION('',(1.E0,0.E0,0.E0));
#209=AXIS2_PLACEMENT_3D('',#206,#207,#208);
#211=CARTESIAN_POINT('',(-6.25E1,1.E1,2.85E1));
#212=DIRECTION('',(0.E0,-1.E0,0.E0));
#213=DIRECTION('',(-1.E0,0.E0,0.E0));
#214=AXIS2_PLACEMENT_3D('',#211,#212,#213);
#216=CARTESIAN_POINT('',(6.25E1,1.E1,2.85E1));
#217=DIRECTION('',(0.E0,-1.E0,0.E0));
#218=DIRECTION('',(1.E0,0.E0,0.E0));
#219=AXIS2_PLACEMENT_3D('',#216,#217,#218);
#221=CARTESIAN_POINT('',(6.25E1,1.E1,2.85E1));
#222=DIRECTION('',(0.E0,-1.E0,0.E0));
#223=DIRECTION('',(-1.E0,0.E0,0.E0));
#224=AXIS2_PLACEMENT_3D('',#221,#222,#223);
#226=CARTESIAN_POINT('',(-3.75E1,1.E1,-2.3E1));
#227=DIRECTION('',(0.E0,1.E0,0.E0));
#228=DIRECTION('',(1.E0,0.E0,0.E0));
#229=AXIS2_PLACEMENT_3D('',#226,#227,#228);
#231=CARTESIAN_POINT('',(-3.75E1,1.E1,-2.3E1));
#232=DIRECTION('',(0.E0,1.E0,0.E0));
#233=DIRECTION('',(-1.E0,0.E0,0.E0));
#234=AXIS2_PLACEMENT_3D('',#231,#232,#233);
#236=CARTESIAN_POINT('',(3.75E1,1.E1,-2.3E1));
#237=DIRECTION('',(0.E0,1.E0,0.E0));
#238=DIRECTION('',(1.E0,0.E0,0.E0));
#239=AXIS2_PLACEMENT_3D('',#236,#237,#238);
#241=CARTESIAN_POINT('',(3.75E1,1.E1,-2.3E1));
#242=DIRECTION('',(0.E0,1.E0,0.E0));
#243=DIRECTION('',(-1.E0,0.E0,0.E0));
#244=AXIS2_PLACEMENT_3D('',#241,#242,#243);
#246=CARTESIAN_POINT('',(0.E0,1.E1,1.7E1));
#247=DIRECTION('',(0.E0,1.E0,0.E0));
#248=DIRECTION('',(1.E0,0.E0,0.E0));
#249=AXIS2_PLACEMENT_3D('',#246,#247,#248);
#251=CARTESIAN_POINT('',(0.E0,1.E1,1.7E1));
#252=DIRECTION('',(0.E0,1.E0,0.E0));
#253=DIRECTION('',(-1.E0,0.E0,0.E0));
#254=AXIS2_PLACEMENT_3D('',#251,#252,#253);
#256=DIRECTION('',(0.E0,0.E0,1.E0));
#257=VECTOR('',#256,3.E0);
#258=CARTESIAN_POINT('',(-5.4E1,1.E1,-7.E0));
#259=LINE('',#258,#257);
#260=DIRECTION('',(-1.E0,0.E0,0.E0));
#261=VECTOR('',#260,5.E-1);
#262=CARTESIAN_POINT('',(-5.4E1,1.E1,-4.E0));
#263=LINE('',#262,#261);
#264=DIRECTION('',(0.E0,0.E0,1.E0));
#265=VECTOR('',#264,6.E0);
#266=CARTESIAN_POINT('',(-5.45E1,1.E1,-4.E0));
#267=LINE('',#266,#265);
#268=DIRECTION('',(1.E0,0.E0,0.E0));
#269=VECTOR('',#268,2.E0);
#270=CARTESIAN_POINT('',(-5.45E1,1.E1,2.E0));
#271=LINE('',#270,#269);
#272=DIRECTION('',(0.E0,0.E0,-1.E0));
#273=VECTOR('',#272,1.1E1);
#274=CARTESIAN_POINT('',(-5.25E1,1.E1,2.E0));
#275=LINE('',#274,#273);
#276=DIRECTION('',(1.E0,0.E0,0.E0));
#277=VECTOR('',#276,2.5E1);
#278=CARTESIAN_POINT('',(-7.75E1,1.E1,-9.E0));
#279=LINE('',#278,#277);
#280=DIRECTION('',(0.E0,0.E0,1.E0));
#281=VECTOR('',#280,2.6E1);
#282=CARTESIAN_POINT('',(-7.75E1,1.E1,-3.5E1));
#283=LINE('',#282,#281);
#284=DIRECTION('',(-1.E0,0.E0,0.E0));
#285=VECTOR('',#284,1.55E2);
#286=CARTESIAN_POINT('',(7.75E1,1.E1,-3.5E1));
#287=LINE('',#286,#285);
#288=DIRECTION('',(0.E0,0.E0,-1.E0));
#289=VECTOR('',#288,2.6E1);
#290=CARTESIAN_POINT('',(7.75E1,1.E1,-9.E0));
#291=LINE('',#290,#289);
#292=DIRECTION('',(-1.E0,0.E0,0.E0));
#293=VECTOR('',#292,2.5E1);
#294=CARTESIAN_POINT('',(7.75E1,1.E1,-9.E0));
#295=LINE('',#294,#293);
#296=DIRECTION('',(0.E0,0.E0,-1.E0));
#297=VECTOR('',#296,1.1E1);
#298=CARTESIAN_POINT('',(5.25E1,1.E1,2.E0));
#299=LINE('',#298,#297);
#300=DIRECTION('',(-1.E0,0.E0,0.E0));
#301=VECTOR('',#300,2.E0);
#302=CARTESIAN_POINT('',(5.45E1,1.E1,2.E0));
#303=LINE('',#302,#301);
#304=DIRECTION('',(0.E0,0.E0,1.E0));
#305=VECTOR('',#304,6.E0);
#306=CARTESIAN_POINT('',(5.45E1,1.E1,-4.E0));
#307=LINE('',#306,#305);
#308=DIRECTION('',(1.E0,0.E0,0.E0));
#309=VECTOR('',#308,5.E-1);
#310=CARTESIAN_POINT('',(5.4E1,1.E1,-4.E0));
#311=LINE('',#310,#309);
#312=DIRECTION('',(0.E0,0.E0,1.E0));
#313=VECTOR('',#312,3.E0);
#314=CARTESIAN_POINT('',(5.4E1,1.E1,-7.E0));
#315=LINE('',#314,#313);
#316=DIRECTION('',(0.E0,0.E0,-1.E0));
#317=VECTOR('',#316,4.2E1);
#318=CARTESIAN_POINT('',(7.75E1,1.E1,3.5E1));
#319=LINE('',#318,#317);
#320=DIRECTION('',(1.E0,0.E0,0.E0));
#321=VECTOR('',#320,1.55E2);
#322=CARTESIAN_POINT('',(-7.75E1,1.E1,3.5E1));
#323=LINE('',#322,#321);
#324=DIRECTION('',(0.E0,0.E0,1.E0));
#325=VECTOR('',#324,4.2E1);
#326=CARTESIAN_POINT('',(-7.75E1,1.E1,-7.E0));
#327=LINE('',#326,#325);
#328=DIRECTION('',(0.E0,1.E0,0.E0));
#329=VECTOR('',#328,1.E1);
#330=CARTESIAN_POINT('',(-5.905E1,0.E0,-2.3E1));
#331=LINE('',#330,#329);
#332=DIRECTION('',(0.E0,1.E0,0.E0));
#333=VECTOR('',#332,1.E1);
#334=CARTESIAN_POINT('',(-6.595E1,0.E0,-2.3E1));
#335=LINE('',#334,#333);
#336=DIRECTION('',(0.E0,1.E0,0.E0));
#337=VECTOR('',#336,1.E1);
#338=CARTESIAN_POINT('',(6.595E1,0.E0,-2.3E1));
#339=LINE('',#338,#337);
#340=DIRECTION('',(0.E0,1.E0,0.E0));
#341=VECTOR('',#340,1.E1);
#342=CARTESIAN_POINT('',(5.905E1,0.E0,-2.3E1));
#343=LINE('',#342,#341);
#344=DIRECTION('',(0.E0,1.E0,0.E0));
#345=VECTOR('',#344,1.E1);
#346=CARTESIAN_POINT('',(-5.905E1,0.E0,2.85E1));
#347=LINE('',#346,#345);
#348=DIRECTION('',(0.E0,1.E0,0.E0));
#349=VECTOR('',#348,1.E1);
#350=CARTESIAN_POINT('',(-6.595E1,0.E0,2.85E1));
#351=LINE('',#350,#349);
#352=DIRECTION('',(0.E0,1.E0,0.E0));
#353=VECTOR('',#352,1.E1);
#354=CARTESIAN_POINT('',(6.595E1,0.E0,2.85E1));
#355=LINE('',#354,#353);
#356=DIRECTION('',(0.E0,1.E0,0.E0));
#357=VECTOR('',#356,1.E1);
#358=CARTESIAN_POINT('',(5.905E1,0.E0,2.85E1));
#359=LINE('',#358,#357);
#360=DIRECTION('',(0.E0,-1.E0,0.E0));
#361=VECTOR('',#360,4.E0);
#362=CARTESIAN_POINT('',(-4.25E1,1.E1,-2.3E1));
#363=LINE('',#362,#361);
#364=DIRECTION('',(0.E0,-1.E0,0.E0));
#365=VECTOR('',#364,4.E0);
#366=CARTESIAN_POINT('',(4.25E1,1.E1,-2.3E1));
#367=LINE('',#366,#365);
#368=DIRECTION('',(0.E0,-1.E0,0.E0));
#369=VECTOR('',#368,4.E0);
#370=CARTESIAN_POINT('',(3.25E1,1.E1,-2.3E1));
#371=LINE('',#370,#369);
#372=DIRECTION('',(0.E0,-1.E0,0.E0));
#373=VECTOR('',#372,4.E0);
#374=CARTESIAN_POINT('',(6.E0,1.E1,1.7E1));
#375=LINE('',#374,#373);
#376=DIRECTION('',(0.E0,-1.E0,0.E0));
#377=VECTOR('',#376,4.E0);
#378=CARTESIAN_POINT('',(-6.E0,1.E1,1.7E1));
#379=LINE('',#378,#377);
#380=DIRECTION('',(1.E0,0.E0,0.E0));
#381=VECTOR('',#380,2.35E1);
#382=CARTESIAN_POINT('',(-7.75E1,0.E0,-7.E0));
#383=LINE('',#382,#381);
#384=DIRECTION('',(-1.E0,0.E0,0.E0));
#385=VECTOR('',#384,2.35E1);
#386=CARTESIAN_POINT('',(-5.4E1,1.E1,-7.E0));
#387=LINE('',#386,#385);
#388=DIRECTION('',(0.E0,1.E0,0.E0));
#389=VECTOR('',#388,1.E1);
#390=CARTESIAN_POINT('',(-5.4E1,0.E0,-7.E0));
#391=LINE('',#390,#389);
#392=DIRECTION('',(0.E0,1.E0,0.E0));
#393=VECTOR('',#392,1.E1);
#394=CARTESIAN_POINT('',(-5.4E1,0.E0,-4.E0));
#395=LINE('',#394,#393);
#396=DIRECTION('',(0.E0,1.E0,0.E0));
#397=VECTOR('',#396,1.E1);
#398=CARTESIAN_POINT('',(-5.45E1,0.E0,-4.E0));
#399=LINE('',#398,#397);
#400=DIRECTION('',(0.E0,1.E0,0.E0));
#401=VECTOR('',#400,1.E1);
#402=CARTESIAN_POINT('',(-5.45E1,0.E0,2.E0));
#403=LINE('',#402,#401);
#404=DIRECTION('',(0.E0,1.E0,0.E0));
#405=VECTOR('',#404,1.E1);
#406=CARTESIAN_POINT('',(-5.25E1,0.E0,2.E0));
#407=LINE('',#406,#405);
#408=DIRECTION('',(0.E0,1.E0,0.E0));
#409=VECTOR('',#408,1.E1);
#410=CARTESIAN_POINT('',(-5.25E1,0.E0,-9.E0));
#411=LINE('',#410,#409);
#412=DIRECTION('',(0.E0,1.E0,0.E0));
#413=VECTOR('',#412,1.E1);
#414=CARTESIAN_POINT('',(-7.75E1,0.E0,-7.E0));
#415=LINE('',#414,#413);
#416=DIRECTION('',(0.E0,1.E0,0.E0));
#417=VECTOR('',#416,1.E1);
#418=CARTESIAN_POINT('',(-7.75E1,0.E0,-9.E0));
#419=LINE('',#418,#417);
#420=DIRECTION('',(0.E0,1.E0,0.E0));
#421=VECTOR('',#420,1.E1);
#422=CARTESIAN_POINT('',(-7.75E1,0.E0,-3.5E1));
#423=LINE('',#422,#421);
#424=DIRECTION('',(0.E0,1.E0,0.E0));
#425=VECTOR('',#424,1.E1);
#426=CARTESIAN_POINT('',(-7.75E1,0.E0,3.5E1));
#427=LINE('',#426,#425);
#428=DIRECTION('',(0.E0,1.E0,0.E0));
#429=VECTOR('',#428,1.E1);
#430=CARTESIAN_POINT('',(7.75E1,0.E0,-7.E0));
#431=LINE('',#430,#429);
#432=DIRECTION('',(0.E0,1.E0,0.E0));
#433=VECTOR('',#432,1.E1);
#434=CARTESIAN_POINT('',(7.75E1,0.E0,3.5E1));
#435=LINE('',#434,#433);
#436=DIRECTION('',(0.E0,1.E0,0.E0));
#437=VECTOR('',#436,1.E1);
#438=CARTESIAN_POINT('',(7.75E1,0.E0,-9.E0));
#439=LINE('',#438,#437);
#440=DIRECTION('',(-1.E0,0.E0,0.E0));
#441=VECTOR('',#440,2.35E1);
#442=CARTESIAN_POINT('',(7.75E1,1.E1,-7.E0));
#443=LINE('',#442,#441);
#444=DIRECTION('',(1.E0,0.E0,0.E0));
#445=VECTOR('',#444,2.35E1);
#446=CARTESIAN_POINT('',(5.4E1,0.E0,-7.E0));
#447=LINE('',#446,#445);
#448=DIRECTION('',(0.E0,1.E0,0.E0));
#449=VECTOR('',#448,1.E1);
#450=CARTESIAN_POINT('',(5.4E1,0.E0,-7.E0));
#451=LINE('',#450,#449);
#452=DIRECTION('',(0.E0,1.E0,0.E0));
#453=VECTOR('',#452,1.E1);
#454=CARTESIAN_POINT('',(5.4E1,0.E0,-4.E0));
#455=LINE('',#454,#453);
#456=DIRECTION('',(0.E0,1.E0,0.E0));
#457=VECTOR('',#456,1.E1);
#458=CARTESIAN_POINT('',(5.45E1,0.E0,-4.E0));
#459=LINE('',#458,#457);
#460=DIRECTION('',(0.E0,1.E0,0.E0));
#461=VECTOR('',#460,1.E1);
#462=CARTESIAN_POINT('',(5.45E1,0.E0,2.E0));
#463=LINE('',#462,#461);
#464=DIRECTION('',(0.E0,1.E0,0.E0));
#465=VECTOR('',#464,1.E1);
#466=CARTESIAN_POINT('',(5.25E1,0.E0,2.E0));
#467=LINE('',#466,#465);
#468=DIRECTION('',(0.E0,1.E0,0.E0));
#469=VECTOR('',#468,1.E1);
#470=CARTESIAN_POINT('',(5.25E1,0.E0,-9.E0));
#471=LINE('',#470,#469);
#472=DIRECTION('',(0.E0,1.E0,0.E0));
#473=VECTOR('',#472,1.E1);
#474=CARTESIAN_POINT('',(7.75E1,0.E0,-3.5E1));
#475=LINE('',#474,#473);
#476=CARTESIAN_POINT('',(-3.75E1,6.E0,-2.3E1));
#477=DIRECTION('',(0.E0,1.E0,0.E0));
#478=DIRECTION('',(1.E0,0.E0,0.E0));
#479=AXIS2_PLACEMENT_3D('',#476,#477,#478);
#481=DIRECTION('',(0.E0,1.E0,0.E0));
#482=VECTOR('',#481,6.E0);
#483=CARTESIAN_POINT('',(-4.025E1,0.E0,-2.3E1));
#484=LINE('',#483,#482);
#485=CARTESIAN_POINT('',(3.75E1,6.E0,-2.3E1));
#486=DIRECTION('',(0.E0,1.E0,0.E0));
#487=DIRECTION('',(-1.E0,0.E0,0.E0));
#488=AXIS2_PLACEMENT_3D('',#485,#486,#487);
#490=DIRECTION('',(0.E0,1.E0,0.E0));
#491=VECTOR('',#490,6.E0);
#492=CARTESIAN_POINT('',(4.025E1,0.E0,-2.3E1));
#493=LINE('',#492,#491);
#494=CARTESIAN_POINT('',(3.75E1,6.E0,-2.3E1));
#495=DIRECTION('',(0.E0,1.E0,0.E0));
#496=DIRECTION('',(1.E0,0.E0,0.E0));
#497=AXIS2_PLACEMENT_3D('',#494,#495,#496);
#499=DIRECTION('',(0.E0,1.E0,0.E0));
#500=VECTOR('',#499,6.E0);
#501=CARTESIAN_POINT('',(3.475E1,0.E0,-2.3E1));
#502=LINE('',#501,#500);
#503=CARTESIAN_POINT('',(0.E0,2.E0,1.7E1));
#504=DIRECTION('',(0.E0,1.E0,0.E0));
#505=DIRECTION('',(-1.E0,0.E0,0.E0));
#506=AXIS2_PLACEMENT_3D('',#503,#504,#505);
#508=DIRECTION('',(0.E0,1.E0,0.E0));
#509=VECTOR('',#508,4.E0);
#510=CARTESIAN_POINT('',(2.75E0,2.E0,1.7E1));
#511=LINE('',#510,#509);
#512=CARTESIAN_POINT('',(0.E0,6.E0,1.7E1));
#513=DIRECTION('',(0.E0,1.E0,0.E0));
#514=DIRECTION('',(-1.E0,0.E0,0.E0));
#515=AXIS2_PLACEMENT_3D('',#512,#513,#514);
#517=CARTESIAN_POINT('',(0.E0,2.E0,1.7E1));
#518=DIRECTION('',(0.E0,-1.E0,0.E0));
#519=DIRECTION('',(-1.E0,0.E0,0.E0));
#520=AXIS2_PLACEMENT_3D('',#517,#518,#519);
#522=CARTESIAN_POINT('',(0.E0,2.E0,1.7E1));
#523=DIRECTION('',(0.E0,-1.E0,0.E0));
#524=DIRECTION('',(1.E0,0.E0,0.E0));
#525=AXIS2_PLACEMENT_3D('',#522,#523,#524);
#527=DIRECTION('',(0.E0,1.E0,0.E0));
#528=VECTOR('',#527,2.E0);
#529=CARTESIAN_POINT('',(-3.75E0,0.E0,1.7E1));
#530=LINE('',#529,#528);
#531=DIRECTION('',(0.E0,1.E0,0.E0));
#532=VECTOR('',#531,2.E0);
#533=CARTESIAN_POINT('',(3.75E0,0.E0,1.7E1));
#534=LINE('',#533,#532);
#535=CARTESIAN_POINT('',(0.E0,2.E0,1.7E1));
#536=DIRECTION('',(0.E0,1.E0,0.E0));
#537=DIRECTION('',(1.E0,0.E0,0.E0));
#538=AXIS2_PLACEMENT_3D('',#535,#536,#537);
#540=DIRECTION('',(0.E0,1.E0,0.E0));
#541=VECTOR('',#540,4.E0);
#542=CARTESIAN_POINT('',(-2.75E0,2.E0,1.7E1));
#543=LINE('',#542,#541);
#544=CARTESIAN_POINT('',(0.E0,6.E0,1.7E1));
#545=DIRECTION('',(0.E0,1.E0,0.E0));
#546=DIRECTION('',(1.E0,0.E0,0.E0));
#547=AXIS2_PLACEMENT_3D('',#544,#545,#546);
#549=CARTESIAN_POINT('',(-3.475E1,0.E0,-2.3E1));
#550=CARTESIAN_POINT('',(-4.025E1,0.E0,-2.3E1));
#551=VERTEX_POINT('',#549);
#552=VERTEX_POINT('',#550);
#553=CARTESIAN_POINT('',(4.025E1,0.E0,-2.3E1));
#554=CARTESIAN_POINT('',(3.475E1,0.E0,-2.3E1));
#555=VERTEX_POINT('',#553);
#556=VERTEX_POINT('',#554);
#557=CARTESIAN_POINT('',(-5.905E1,0.E0,-2.3E1));
#558=CARTESIAN_POINT('',(-6.595E1,0.E0,-2.3E1));
#559=VERTEX_POINT('',#557);
#560=VERTEX_POINT('',#558);
#561=CARTESIAN_POINT('',(6.595E1,0.E0,-2.3E1));
#562=CARTESIAN_POINT('',(5.905E1,0.E0,-2.3E1));
#563=VERTEX_POINT('',#561);
#564=VERTEX_POINT('',#562);
#565=CARTESIAN_POINT('',(7.75E1,0.E0,-3.5E1));
#566=CARTESIAN_POINT('',(-7.75E1,0.E0,-3.5E1));
#567=VERTEX_POINT('',#565);
#568=VERTEX_POINT('',#566);
#569=CARTESIAN_POINT('',(-7.75E1,0.E0,3.5E1));
#570=CARTESIAN_POINT('',(7.75E1,0.E0,3.5E1));
#571=VERTEX_POINT('',#569);
#572=VERTEX_POINT('',#570);
#573=CARTESIAN_POINT('',(-5.905E1,1.E1,-2.3E1));
#574=CARTESIAN_POINT('',(-6.595E1,1.E1,-2.3E1));
#575=VERTEX_POINT('',#573);
#576=VERTEX_POINT('',#574);
#577=CARTESIAN_POINT('',(6.595E1,1.E1,-2.3E1));
#578=CARTESIAN_POINT('',(5.905E1,1.E1,-2.3E1));
#579=VERTEX_POINT('',#577);
#580=VERTEX_POINT('',#578);
#581=CARTESIAN_POINT('',(7.75E1,1.E1,-3.5E1));
#582=CARTESIAN_POINT('',(-7.75E1,1.E1,-3.5E1));
#583=VERTEX_POINT('',#581);
#584=VERTEX_POINT('',#582);
#585=CARTESIAN_POINT('',(-7.75E1,1.E1,3.5E1));
#586=CARTESIAN_POINT('',(7.75E1,1.E1,3.5E1));
#587=VERTEX_POINT('',#585);
#588=VERTEX_POINT('',#586);
#589=CARTESIAN_POINT('',(-3.25E1,6.E0,-2.3E1));
#590=CARTESIAN_POINT('',(-4.25E1,6.E0,-2.3E1));
#591=VERTEX_POINT('',#589);
#592=VERTEX_POINT('',#590);
#593=CARTESIAN_POINT('',(4.25E1,6.E0,-2.3E1));
#594=CARTESIAN_POINT('',(3.25E1,6.E0,-2.3E1));
#595=VERTEX_POINT('',#593);
#596=VERTEX_POINT('',#594);
#597=CARTESIAN_POINT('',(6.E0,6.E0,1.7E1));
#598=CARTESIAN_POINT('',(-6.E0,6.E0,1.7E1));
#599=VERTEX_POINT('',#597);
#600=VERTEX_POINT('',#598);
#601=CARTESIAN_POINT('',(-3.25E1,1.E1,-2.3E1));
#602=CARTESIAN_POINT('',(-4.25E1,1.E1,-2.3E1));
#603=VERTEX_POINT('',#601);
#604=VERTEX_POINT('',#602);
#605=CARTESIAN_POINT('',(4.25E1,1.E1,-2.3E1));
#606=CARTESIAN_POINT('',(3.25E1,1.E1,-2.3E1));
#607=VERTEX_POINT('',#605);
#608=VERTEX_POINT('',#606);
#609=CARTESIAN_POINT('',(6.E0,1.E1,1.7E1));
#610=CARTESIAN_POINT('',(-6.E0,1.E1,1.7E1));
#611=VERTEX_POINT('',#609);
#612=VERTEX_POINT('',#610);
#613=CARTESIAN_POINT('',(-4.025E1,6.E0,-2.3E1));
#614=CARTESIAN_POINT('',(-3.475E1,6.E0,-2.3E1));
#615=VERTEX_POINT('',#613);
#616=VERTEX_POINT('',#614);
#617=CARTESIAN_POINT('',(3.475E1,6.E0,-2.3E1));
#618=CARTESIAN_POINT('',(4.025E1,6.E0,-2.3E1));
#619=VERTEX_POINT('',#617);
#620=VERTEX_POINT('',#618);
#621=CARTESIAN_POINT('',(-2.75E0,6.E0,1.7E1));
#622=CARTESIAN_POINT('',(2.75E0,6.E0,1.7E1));
#623=VERTEX_POINT('',#621);
#624=VERTEX_POINT('',#622);
#625=CARTESIAN_POINT('',(-3.75E0,2.E0,1.7E1));
#626=CARTESIAN_POINT('',(3.75E0,2.E0,1.7E1));
#627=VERTEX_POINT('',#625);
#628=VERTEX_POINT('',#626);
#629=CARTESIAN_POINT('',(-3.75E0,0.E0,1.7E1));
#630=CARTESIAN_POINT('',(3.75E0,0.E0,1.7E1));
#631=VERTEX_POINT('',#629);
#632=VERTEX_POINT('',#630);
#633=CARTESIAN_POINT('',(-2.75E0,2.E0,1.7E1));
#634=CARTESIAN_POINT('',(2.75E0,2.E0,1.7E1));
#635=VERTEX_POINT('',#633);
#636=VERTEX_POINT('',#634);
#637=CARTESIAN_POINT('',(5.4E1,0.E0,-7.E0));
#638=CARTESIAN_POINT('',(5.4E1,0.E0,-4.E0));
#639=VERTEX_POINT('',#637);
#640=VERTEX_POINT('',#638);
#641=CARTESIAN_POINT('',(5.45E1,0.E0,-4.E0));
#642=VERTEX_POINT('',#641);
#643=CARTESIAN_POINT('',(5.45E1,0.E0,2.E0));
#644=VERTEX_POINT('',#643);
#645=CARTESIAN_POINT('',(5.25E1,0.E0,2.E0));
#646=VERTEX_POINT('',#645);
#647=CARTESIAN_POINT('',(5.25E1,0.E0,-9.E0));
#648=VERTEX_POINT('',#647);
#649=CARTESIAN_POINT('',(7.75E1,0.E0,-9.E0));
#650=VERTEX_POINT('',#649);
#651=CARTESIAN_POINT('',(5.4E1,1.E1,-7.E0));
#652=CARTESIAN_POINT('',(5.4E1,1.E1,-4.E0));
#653=VERTEX_POINT('',#651);
#654=VERTEX_POINT('',#652);
#655=CARTESIAN_POINT('',(5.45E1,1.E1,-4.E0));
#656=VERTEX_POINT('',#655);
#657=CARTESIAN_POINT('',(5.45E1,1.E1,2.E0));
#658=VERTEX_POINT('',#657);
#659=CARTESIAN_POINT('',(5.25E1,1.E1,2.E0));
#660=VERTEX_POINT('',#659);
#661=CARTESIAN_POINT('',(5.25E1,1.E1,-9.E0));
#662=VERTEX_POINT('',#661);
#663=CARTESIAN_POINT('',(7.75E1,1.E1,-9.E0));
#664=VERTEX_POINT('',#663);
#665=CARTESIAN_POINT('',(7.75E1,0.E0,-7.E0));
#666=CARTESIAN_POINT('',(7.75E1,1.E1,-7.E0));
#667=VERTEX_POINT('',#665);
#668=VERTEX_POINT('',#666);
#669=CARTESIAN_POINT('',(-5.905E1,0.E0,2.85E1));
#670=CARTESIAN_POINT('',(-6.595E1,0.E0,2.85E1));
#671=VERTEX_POINT('',#669);
#672=VERTEX_POINT('',#670);
#673=CARTESIAN_POINT('',(6.595E1,0.E0,2.85E1));
#674=CARTESIAN_POINT('',(5.905E1,0.E0,2.85E1));
#675=VERTEX_POINT('',#673);
#676=VERTEX_POINT('',#674);
#677=CARTESIAN_POINT('',(-5.905E1,1.E1,2.85E1));
#678=CARTESIAN_POINT('',(-6.595E1,1.E1,2.85E1));
#679=VERTEX_POINT('',#677);
#680=VERTEX_POINT('',#678);
#681=CARTESIAN_POINT('',(6.595E1,1.E1,2.85E1));
#682=CARTESIAN_POINT('',(5.905E1,1.E1,2.85E1));
#683=VERTEX_POINT('',#681);
#684=VERTEX_POINT('',#682);
#685=CARTESIAN_POINT('',(-5.4E1,0.E0,-7.E0));
#686=CARTESIAN_POINT('',(-5.4E1,1.E1,-7.E0));
#687=VERTEX_POINT('',#685);
#688=VERTEX_POINT('',#686);
#689=CARTESIAN_POINT('',(-5.4E1,0.E0,-4.E0));
#690=CARTESIAN_POINT('',(-5.4E1,1.E1,-4.E0));
#691=VERTEX_POINT('',#689);
#692=VERTEX_POINT('',#690);
#693=CARTESIAN_POINT('',(-5.45E1,0.E0,-4.E0));
#694=CARTESIAN_POINT('',(-5.45E1,1.E1,-4.E0));
#695=VERTEX_POINT('',#693);
#696=VERTEX_POINT('',#694);
#697=CARTESIAN_POINT('',(-5.45E1,0.E0,2.E0));
#698=CARTESIAN_POINT('',(-5.45E1,1.E1,2.E0));
#699=VERTEX_POINT('',#697);
#700=VERTEX_POINT('',#698);
#701=CARTESIAN_POINT('',(-5.25E1,0.E0,2.E0));
#702=CARTESIAN_POINT('',(-5.25E1,1.E1,2.E0));
#703=VERTEX_POINT('',#701);
#704=VERTEX_POINT('',#702);
#705=CARTESIAN_POINT('',(-5.25E1,0.E0,-9.E0));
#706=CARTESIAN_POINT('',(-5.25E1,1.E1,-9.E0));
#707=VERTEX_POINT('',#705);
#708=VERTEX_POINT('',#706);
#709=CARTESIAN_POINT('',(-7.75E1,0.E0,-9.E0));
#710=VERTEX_POINT('',#709);
#711=CARTESIAN_POINT('',(-7.75E1,1.E1,-9.E0));
#712=VERTEX_POINT('',#711);
#713=CARTESIAN_POINT('',(-7.75E1,0.E0,-7.E0));
#714=CARTESIAN_POINT('',(-7.75E1,1.E1,-7.E0));
#715=VERTEX_POINT('',#713);
#716=VERTEX_POINT('',#714);
#717=CARTESIAN_POINT('',(0.E0,0.E0,0.E0));
#718=DIRECTION('',(0.E0,1.E0,0.E0));
#719=DIRECTION('',(1.E0,0.E0,0.E0));
#720=AXIS2_PLACEMENT_3D('',#717,#718,#719);
#721=PLANE('',#720);
#723=ORIENTED_EDGE('',*,*,#722,.F.);
#725=ORIENTED_EDGE('',*,*,#724,.T.);
#727=ORIENTED_EDGE('',*,*,#726,.T.);
#729=ORIENTED_EDGE('',*,*,#728,.T.);
#731=ORIENTED_EDGE('',*,*,#730,.F.);
#733=ORIENTED_EDGE('',*,*,#732,.T.);
#735=ORIENTED_EDGE('',*,*,#734,.T.);
#737=ORIENTED_EDGE('',*,*,#736,.T.);
#739=ORIENTED_EDGE('',*,*,#738,.T.);
#741=ORIENTED_EDGE('',*,*,#740,.T.);
#743=ORIENTED_EDGE('',*,*,#742,.F.);
#745=ORIENTED_EDGE('',*,*,#744,.T.);
#747=ORIENTED_EDGE('',*,*,#746,.T.);
#749=ORIENTED_EDGE('',*,*,#748,.T.);
#751=ORIENTED_EDGE('',*,*,#750,.T.);
#753=ORIENTED_EDGE('',*,*,#752,.F.);
#755=ORIENTED_EDGE('',*,*,#754,.F.);
#757=ORIENTED_EDGE('',*,*,#756,.F.);
#759=ORIENTED_EDGE('',*,*,#758,.F.);
#761=ORIENTED_EDGE('',*,*,#760,.F.);
#762=EDGE_LOOP('',(#723,#725,#727,#729,#731,#733,#735,#737,#739,#741,#743,#745,
#747,#749,#751,#753,#755,#757,#759,#761));
#763=FACE_OUTER_BOUND('',#762,.F.);
#765=ORIENTED_EDGE('',*,*,#764,.T.);
#767=ORIENTED_EDGE('',*,*,#766,.T.);
#768=EDGE_LOOP('',(#765,#767));
#769=FACE_BOUND('',#768,.F.);
#771=ORIENTED_EDGE('',*,*,#770,.T.);
#773=ORIENTED_EDGE('',*,*,#772,.T.);
#774=EDGE_LOOP('',(#771,#773));
#775=FACE_BOUND('',#774,.F.);
#777=ORIENTED_EDGE('',*,*,#776,.T.);
#779=ORIENTED_EDGE('',*,*,#778,.T.);
#780=EDGE_LOOP('',(#777,#779));
#781=FACE_BOUND('',#780,.F.);
#783=ORIENTED_EDGE('',*,*,#782,.T.);
#785=ORIENTED_EDGE('',*,*,#784,.T.);
#786=EDGE_LOOP('',(#783,#785));
#787=FACE_BOUND('',#786,.F.);
#789=ORIENTED_EDGE('',*,*,#788,.T.);
#791=ORIENTED_EDGE('',*,*,#790,.T.);
#792=EDGE_LOOP('',(#789,#791));
#793=FACE_BOUND('',#792,.F.);
#795=ORIENTED_EDGE('',*,*,#794,.T.);
#797=ORIENTED_EDGE('',*,*,#796,.T.);
#798=EDGE_LOOP('',(#795,#797));
#799=FACE_BOUND('',#798,.F.);
#801=ORIENTED_EDGE('',*,*,#800,.T.);
#803=ORIENTED_EDGE('',*,*,#802,.T.);
#804=EDGE_LOOP('',(#801,#803));
#805=FACE_BOUND('',#804,.F.);
#806=ADVANCED_FACE('',(#763,#769,#775,#781,#787,#793,#799,#805),#721,.F.);
#807=CARTESIAN_POINT('',(-3.75E1,0.E0,-2.3E1));
#808=DIRECTION('',(0.E0,1.E0,0.E0));
#809=DIRECTION('',(1.E0,0.E0,0.E0));
#810=AXIS2_PLACEMENT_3D('',#807,#808,#809);
#811=CYLINDRICAL_SURFACE('',#810,2.75E0);
#813=ORIENTED_EDGE('',*,*,#812,.F.);
#815=ORIENTED_EDGE('',*,*,#814,.F.);
#816=ORIENTED_EDGE('',*,*,#800,.F.);
#818=ORIENTED_EDGE('',*,*,#817,.T.);
#819=EDGE_LOOP('',(#813,#815,#816,#818));
#820=FACE_OUTER_BOUND('',#819,.F.);
#821=ADVANCED_FACE('',(#820),#811,.F.);
#822=CARTESIAN_POINT('',(0.E0,6.E0,0.E0));
#823=DIRECTION('',(0.E0,1.E0,0.E0));
#824=DIRECTION('',(1.E0,0.E0,0.E0));
#825=AXIS2_PLACEMENT_3D('',#822,#823,#824);
#826=PLANE('',#825);
#828=ORIENTED_EDGE('',*,*,#827,.F.);
#830=ORIENTED_EDGE('',*,*,#829,.F.);
#831=EDGE_LOOP('',(#828,#830));
#832=FACE_OUTER_BOUND('',#831,.F.);
#833=ORIENTED_EDGE('',*,*,#812,.T.);
#835=ORIENTED_EDGE('',*,*,#834,.T.);
#836=EDGE_LOOP('',(#833,#835));
#837=FACE_BOUND('',#836,.F.);
#838=ADVANCED_FACE('',(#832,#837),#826,.T.);
#839=CARTESIAN_POINT('',(0.E0,6.E0,0.E0));
#840=DIRECTION('',(0.E0,1.E0,0.E0));
#841=DIRECTION('',(1.E0,0.E0,0.E0));
#842=AXIS2_PLACEMENT_3D('',#839,#840,#841);
#843=PLANE('',#842);
#845=ORIENTED_EDGE('',*,*,#844,.F.);
#847=ORIENTED_EDGE('',*,*,#846,.F.);
#848=EDGE_LOOP('',(#845,#847));
#849=FACE_OUTER_BOUND('',#848,.F.);
#851=ORIENTED_EDGE('',*,*,#850,.T.);
#853=ORIENTED_EDGE('',*,*,#852,.T.);
#854=EDGE_LOOP('',(#851,#853));
#855=FACE_BOUND('',#854,.F.);
#856=ADVANCED_FACE('',(#849,#855),#843,.T.);
#857=CARTESIAN_POINT('',(0.E0,6.E0,0.E0));
#858=DIRECTION('',(0.E0,1.E0,0.E0));
#859=DIRECTION('',(1.E0,0.E0,0.E0));
#860=AXIS2_PLACEMENT_3D('',#857,#858,#859);
#861=PLANE('',#860);
#863=ORIENTED_EDGE('',*,*,#862,.F.);
#865=ORIENTED_EDGE('',*,*,#864,.F.);
#866=EDGE_LOOP('',(#863,#865));
#867=FACE_OUTER_BOUND('',#866,.F.);
#869=ORIENTED_EDGE('',*,*,#868,.T.);
#871=ORIENTED_EDGE('',*,*,#870,.T.);
#872=EDGE_LOOP('',(#869,#871));
#873=FACE_BOUND('',#872,.F.);
#874=ADVANCED_FACE('',(#867,#873),#861,.T.);
#875=CARTESIAN_POINT('',(-3.75E1,1.E1,-2.3E1));
#876=DIRECTION('',(0.E0,1.E0,0.E0));
#877=DIRECTION('',(1.E0,0.E0,0.E0));
#878=AXIS2_PLACEMENT_3D('',#875,#876,#877);
#879=CYLINDRICAL_SURFACE('',#878,5.E0);
#881=ORIENTED_EDGE('',*,*,#880,.F.);
#883=ORIENTED_EDGE('',*,*,#882,.T.);
#884=ORIENTED_EDGE('',*,*,#827,.T.);
#886=ORIENTED_EDGE('',*,*,#885,.F.);
#887=EDGE_LOOP('',(#881,#883,#884,#886));
#888=FACE_OUTER_BOUND('',#887,.F.);
#889=ADVANCED_FACE('',(#888),#879,.F.);
#890=CARTESIAN_POINT('',(0.E0,1.E1,0.E0));
#891=DIRECTION('',(0.E0,1.E0,0.E0));
#892=DIRECTION('',(1.E0,0.E0,0.E0));
#893=AXIS2_PLACEMENT_3D('',#890,#891,#892);
#894=PLANE('',#893);
#896=ORIENTED_EDGE('',*,*,#895,.F.);
#898=ORIENTED_EDGE('',*,*,#897,.T.);
#900=ORIENTED_EDGE('',*,*,#899,.T.);
#902=ORIENTED_EDGE('',*,*,#901,.T.);
#904=ORIENTED_EDGE('',*,*,#903,.T.);
#906=ORIENTED_EDGE('',*,*,#905,.T.);
#908=ORIENTED_EDGE('',*,*,#907,.F.);
#910=ORIENTED_EDGE('',*,*,#909,.F.);
#912=ORIENTED_EDGE('',*,*,#911,.F.);
#914=ORIENTED_EDGE('',*,*,#913,.F.);
#916=ORIENTED_EDGE('',*,*,#915,.T.);
#918=ORIENTED_EDGE('',*,*,#917,.F.);
#920=ORIENTED_EDGE('',*,*,#919,.F.);
#922=ORIENTED_EDGE('',*,*,#921,.F.);
#924=ORIENTED_EDGE('',*,*,#923,.F.);
#926=ORIENTED_EDGE('',*,*,#925,.F.);
#928=ORIENTED_EDGE('',*,*,#927,.F.);
#930=ORIENTED_EDGE('',*,*,#929,.F.);
#932=ORIENTED_EDGE('',*,*,#931,.F.);
#934=ORIENTED_EDGE('',*,*,#933,.F.);
#935=EDGE_LOOP('',(#896,#898,#900,#902,#904,#906,#908,#910,#912,#914,#916,#918,
#920,#922,#924,#926,#928,#930,#932,#934));
#936=FACE_OUTER_BOUND('',#935,.F.);
#938=ORIENTED_EDGE('',*,*,#937,.F.);
#940=ORIENTED_EDGE('',*,*,#939,.F.);
#941=EDGE_LOOP('',(#938,#940));
#942=FACE_BOUND('',#941,.F.);
#944=ORIENTED_EDGE('',*,*,#943,.F.);
#946=ORIENTED_EDGE('',*,*,#945,.F.);
#947=EDGE_LOOP('',(#944,#946));
#948=FACE_BOUND('',#947,.F.);
#950=ORIENTED_EDGE('',*,*,#949,.F.);
#952=ORIENTED_EDGE('',*,*,#951,.F.);
#953=EDGE_LOOP('',(#950,#952));
#954=FACE_BOUND('',#953,.F.);
#955=ORIENTED_EDGE('',*,*,#880,.T.);
#957=ORIENTED_EDGE('',*,*,#956,.T.);
#958=EDGE_LOOP('',(#955,#957));
#959=FACE_BOUND('',#958,.F.);
#961=ORIENTED_EDGE('',*,*,#960,.T.);
#963=ORIENTED_EDGE('',*,*,#962,.T.);
#964=EDGE_LOOP('',(#961,#963));
#965=FACE_BOUND('',#964,.F.);
#967=ORIENTED_EDGE('',*,*,#966,.T.);
#969=ORIENTED_EDGE('',*,*,#968,.T.);
#970=EDGE_LOOP('',(#967,#969));
#971=FACE_BOUND('',#970,.F.);
#973=ORIENTED_EDGE('',*,*,#972,.F.);
#975=ORIENTED_EDGE('',*,*,#974,.F.);
#976=EDGE_LOOP('',(#973,#975));
#977=FACE_BOUND('',#976,.F.);
#978=ADVANCED_FACE('',(#936,#942,#948,#954,#959,#965,#971,#977),#894,.T.);
#979=CARTESIAN_POINT('',(-6.25E1,0.E0,-2.3E1));
#980=DIRECTION('',(0.E0,1.E0,0.E0));
#981=DIRECTION('',(1.E0,0.E0,0.E0));
#982=AXIS2_PLACEMENT_3D('',#979,#980,#981);
#983=CYLINDRICAL_SURFACE('',#982,3.45E0);
#984=ORIENTED_EDGE('',*,*,#770,.F.);
#986=ORIENTED_EDGE('',*,*,#985,.T.);
#987=ORIENTED_EDGE('',*,*,#972,.T.);
#989=ORIENTED_EDGE('',*,*,#988,.F.);
#990=EDGE_LOOP('',(#984,#986,#987,#989));
#991=FACE_OUTER_BOUND('',#990,.F.);
#992=ADVANCED_FACE('',(#991),#983,.F.);
#993=CARTESIAN_POINT('',(-6.25E1,0.E0,-2.3E1));
#994=DIRECTION('',(0.E0,1.E0,0.E0));
#995=DIRECTION('',(1.E0,0.E0,0.E0));
#996=AXIS2_PLACEMENT_3D('',#993,#994,#995);
#997=CYLINDRICAL_SURFACE('',#996,3.45E0);
#998=ORIENTED_EDGE('',*,*,#772,.F.);
#999=ORIENTED_EDGE('',*,*,#988,.T.);
#1000=ORIENTED_EDGE('',*,*,#974,.T.);
#1001=ORIENTED_EDGE('',*,*,#985,.F.);
#1002=EDGE_LOOP('',(#998,#999,#1000,#1001));
#1003=FACE_OUTER_BOUND('',#1002,.F.);
#1004=ADVANCED_FACE('',(#1003),#997,.F.);
#1005=CARTESIAN_POINT('',(6.25E1,0.E0,-2.3E1));
#1006=DIRECTION('',(0.E0,1.E0,0.E0));
#1007=DIRECTION('',(1.E0,0.E0,0.E0));
#1008=AXIS2_PLACEMENT_3D('',#1005,#1006,#1007);
#1009=CYLINDRICAL_SURFACE('',#1008,3.45E0);
#1010=ORIENTED_EDGE('',*,*,#776,.F.);
#1012=ORIENTED_EDGE('',*,*,#1011,.T.);
#1013=ORIENTED_EDGE('',*,*,#937,.T.);
#1015=ORIENTED_EDGE('',*,*,#1014,.F.);
#1016=EDGE_LOOP('',(#1010,#1012,#1013,#1015));
#1017=FACE_OUTER_BOUND('',#1016,.F.);
#1018=ADVANCED_FACE('',(#1017),#1009,.F.);
#1019=CARTESIAN_POINT('',(6.25E1,0.E0,-2.3E1));
#1020=DIRECTION('',(0.E0,1.E0,0.E0));
#1021=DIRECTION('',(1.E0,0.E0,0.E0));
#1022=AXIS2_PLACEMENT_3D('',#1019,#1020,#1021);
#1023=CYLINDRICAL_SURFACE('',#1022,3.45E0);
#1024=ORIENTED_EDGE('',*,*,#778,.F.);
#1025=ORIENTED_EDGE('',*,*,#1014,.T.);
#1026=ORIENTED_EDGE('',*,*,#939,.T.);
#1027=ORIENTED_EDGE('',*,*,#1011,.F.);
#1028=EDGE_LOOP('',(#1024,#1025,#1026,#1027));
#1029=FACE_OUTER_BOUND('',#1028,.F.);
#1030=ADVANCED_FACE('',(#1029),#1023,.F.);
#1031=CARTESIAN_POINT('',(-6.25E1,0.E0,2.85E1));
#1032=DIRECTION('',(0.E0,1.E0,0.E0));
#1033=DIRECTION('',(1.E0,0.E0,0.E0));
#1034=AXIS2_PLACEMENT_3D('',#1031,#1032,#1033);
#1035=CYLINDRICAL_SURFACE('',#1034,3.45E0);
#1036=ORIENTED_EDGE('',*,*,#782,.F.);
#1038=ORIENTED_EDGE('',*,*,#1037,.T.);
#1039=ORIENTED_EDGE('',*,*,#943,.T.);
#1041=ORIENTED_EDGE('',*,*,#1040,.F.);
#1042=EDGE_LOOP('',(#1036,#1038,#1039,#1041));
#1043=FACE_OUTER_BOUND('',#1042,.F.);
#1044=ADVANCED_FACE('',(#1043),#1035,.F.);
#1045=CARTESIAN_POINT('',(-6.25E1,0.E0,2.85E1));
#1046=DIRECTION('',(0.E0,1.E0,0.E0));
#1047=DIRECTION('',(1.E0,0.E0,0.E0));
#1048=AXIS2_PLACEMENT_3D('',#1045,#1046,#1047);
#1049=CYLINDRICAL_SURFACE('',#1048,3.45E0);
#1050=ORIENTED_EDGE('',*,*,#784,.F.);
#1051=ORIENTED_EDGE('',*,*,#1040,.T.);
#1052=ORIENTED_EDGE('',*,*,#945,.T.);
#1053=ORIENTED_EDGE('',*,*,#1037,.F.);
#1054=EDGE_LOOP('',(#1050,#1051,#1052,#1053));
#1055=FACE_OUTER_BOUND('',#1054,.F.);
#1056=ADVANCED_FACE('',(#1055),#1049,.F.);
#1057=CARTESIAN_POINT('',(6.25E1,0.E0,2.85E1));
#1058=DIRECTION('',(0.E0,1.E0,0.E0));
#1059=DIRECTION('',(1.E0,0.E0,0.E0));
#1060=AXIS2_PLACEMENT_3D('',#1057,#1058,#1059);
#1061=CYLINDRICAL_SURFACE('',#1060,3.45E0);
#1062=ORIENTED_EDGE('',*,*,#788,.F.);
#1064=ORIENTED_EDGE('',*,*,#1063,.T.);
#1065=ORIENTED_EDGE('',*,*,#949,.T.);
#1067=ORIENTED_EDGE('',*,*,#1066,.F.);
#1068=EDGE_LOOP('',(#1062,#1064,#1065,#1067));
#1069=FACE_OUTER_BOUND('',#1068,.F.);
#1070=ADVANCED_FACE('',(#1069),#1061,.F.);
#1071=CARTESIAN_POINT('',(6.25E1,0.E0,2.85E1));
#1072=DIRECTION('',(0.E0,1.E0,0.E0));
#1073=DIRECTION('',(1.E0,0.E0,0.E0));
#1074=AXIS2_PLACEMENT_3D('',#1071,#1072,#1073);
#1075=CYLINDRICAL_SURFACE('',#1074,3.45E0);
#1076=ORIENTED_EDGE('',*,*,#790,.F.);
#1077=ORIENTED_EDGE('',*,*,#1066,.T.);
#1078=ORIENTED_EDGE('',*,*,#951,.T.);
#1079=ORIENTED_EDGE('',*,*,#1063,.F.);
#1080=EDGE_LOOP('',(#1076,#1077,#1078,#1079));
#1081=FACE_OUTER_BOUND('',#1080,.F.);
#1082=ADVANCED_FACE('',(#1081),#1075,.F.);
#1083=CARTESIAN_POINT('',(-3.75E1,1.E1,-2.3E1));
#1084=DIRECTION('',(0.E0,1.E0,0.E0));
#1085=DIRECTION('',(1.E0,0.E0,0.E0));
#1086=AXIS2_PLACEMENT_3D('',#1083,#1084,#1085);
#1087=CYLINDRICAL_SURFACE('',#1086,5.E0);
#1088=ORIENTED_EDGE('',*,*,#956,.F.);
#1089=ORIENTED_EDGE('',*,*,#885,.T.);
#1090=ORIENTED_EDGE('',*,*,#829,.T.);
#1091=ORIENTED_EDGE('',*,*,#882,.F.);
#1092=EDGE_LOOP('',(#1088,#1089,#1090,#1091));
#1093=FACE_OUTER_BOUND('',#1092,.F.);
#1094=ADVANCED_FACE('',(#1093),#1087,.F.);
#1095=CARTESIAN_POINT('',(3.75E1,1.E1,-2.3E1));
#1096=DIRECTION('',(0.E0,1.E0,0.E0));
#1097=DIRECTION('',(1.E0,0.E0,0.E0));
#1098=AXIS2_PLACEMENT_3D('',#1095,#1096,#1097);
#1099=CYLINDRICAL_SURFACE('',#1098,5.E0);
#1100=ORIENTED_EDGE('',*,*,#960,.F.);
#1102=ORIENTED_EDGE('',*,*,#1101,.T.);
#1103=ORIENTED_EDGE('',*,*,#844,.T.);
#1105=ORIENTED_EDGE('',*,*,#1104,.F.);
#1106=EDGE_LOOP('',(#1100,#1102,#1103,#1105));
#1107=FACE_OUTER_BOUND('',#1106,.F.);
#1108=ADVANCED_FACE('',(#1107),#1099,.F.);
#1109=CARTESIAN_POINT('',(3.75E1,1.E1,-2.3E1));
#1110=DIRECTION('',(0.E0,1.E0,0.E0));
#1111=DIRECTION('',(1.E0,0.E0,0.E0));
#1112=AXIS2_PLACEMENT_3D('',#1109,#1110,#1111);
#1113=CYLINDRICAL_SURFACE('',#1112,5.E0);
#1114=ORIENTED_EDGE('',*,*,#962,.F.);
#1115=ORIENTED_EDGE('',*,*,#1104,.T.);
#1116=ORIENTED_EDGE('',*,*,#846,.T.);
#1117=ORIENTED_EDGE('',*,*,#1101,.F.);
#1118=EDGE_LOOP('',(#1114,#1115,#1116,#1117));
#1119=FACE_OUTER_BOUND('',#1118,.F.);
#1120=ADVANCED_FACE('',(#1119),#1113,.F.);
#1121=CARTESIAN_POINT('',(0.E0,1.E1,1.7E1));
#1122=DIRECTION('',(0.E0,1.E0,0.E0));
#1123=DIRECTION('',(1.E0,0.E0,0.E0));
#1124=AXIS2_PLACEMENT_3D('',#1121,#1122,#1123);
#1125=CYLINDRICAL_SURFACE('',#1124,6.E0);
#1126=ORIENTED_EDGE('',*,*,#966,.F.);
#1128=ORIENTED_EDGE('',*,*,#1127,.T.);
#1129=ORIENTED_EDGE('',*,*,#862,.T.);
#1131=ORIENTED_EDGE('',*,*,#1130,.F.);
#1132=EDGE_LOOP('',(#1126,#1128,#1129,#1131));
#1133=FACE_OUTER_BOUND('',#1132,.F.);
#1134=ADVANCED_FACE('',(#1133),#1125,.F.);
#1135=CARTESIAN_POINT('',(0.E0,1.E1,1.7E1));
#1136=DIRECTION('',(0.E0,1.E0,0.E0));
#1137=DIRECTION('',(1.E0,0.E0,0.E0));
#1138=AXIS2_PLACEMENT_3D('',#1135,#1136,#1137);
#1139=CYLINDRICAL_SURFACE('',#1138,6.E0);
#1140=ORIENTED_EDGE('',*,*,#968,.F.);
#1141=ORIENTED_EDGE('',*,*,#1130,.T.);
#1142=ORIENTED_EDGE('',*,*,#864,.T.);
#1143=ORIENTED_EDGE('',*,*,#1127,.F.);
#1144=EDGE_LOOP('',(#1140,#1141,#1142,#1143));
#1145=FACE_OUTER_BOUND('',#1144,.F.);
#1146=ADVANCED_FACE('',(#1145),#1139,.F.);
#1147=CARTESIAN_POINT('',(-7.75E1,0.E0,-7.E0));
#1148=DIRECTION('',(0.E0,0.E0,-1.E0));
#1149=DIRECTION('',(1.E0,0.E0,0.E0));
#1150=AXIS2_PLACEMENT_3D('',#1147,#1148,#1149);
#1151=PLANE('',#1150);
#1152=ORIENTED_EDGE('',*,*,#722,.T.);
#1154=ORIENTED_EDGE('',*,*,#1153,.T.);
#1155=ORIENTED_EDGE('',*,*,#895,.T.);
#1157=ORIENTED_EDGE('',*,*,#1156,.F.);
#1158=EDGE_LOOP('',(#1152,#1154,#1155,#1157));
#1159=FACE_OUTER_BOUND('',#1158,.F.);
#1160=ADVANCED_FACE('',(#1159),#1151,.T.);
#1161=CARTESIAN_POINT('',(-5.4E1,0.E0,-7.E0));
#1162=DIRECTION('',(1.E0,0.E0,0.E0));
#1163=DIRECTION('',(0.E0,0.E0,1.E0));
#1164=AXIS2_PLACEMENT_3D('',#1161,#1162,#1163);
#1165=PLANE('',#1164);
#1166=ORIENTED_EDGE('',*,*,#1153,.F.);
#1167=ORIENTED_EDGE('',*,*,#760,.T.);
#1169=ORIENTED_EDGE('',*,*,#1168,.T.);
#1170=ORIENTED_EDGE('',*,*,#897,.F.);
#1171=EDGE_LOOP('',(#1166,#1167,#1169,#1170));
#1172=FACE_OUTER_BOUND('',#1171,.F.);
#1173=ADVANCED_FACE('',(#1172),#1165,.T.);
#1174=CARTESIAN_POINT('',(-5.4E1,0.E0,-4.E0));
#1175=DIRECTION('',(0.E0,0.E0,1.E0));
#1176=DIRECTION('',(-1.E0,0.E0,0.E0));
#1177=AXIS2_PLACEMENT_3D('',#1174,#1175,#1176);
#1178=PLANE('',#1177);
#1179=ORIENTED_EDGE('',*,*,#1168,.F.);
#1180=ORIENTED_EDGE('',*,*,#758,.T.);
#1182=ORIENTED_EDGE('',*,*,#1181,.T.);
#1183=ORIENTED_EDGE('',*,*,#899,.F.);
#1184=EDGE_LOOP('',(#1179,#1180,#1182,#1183));
#1185=FACE_OUTER_BOUND('',#1184,.F.);
#1186=ADVANCED_FACE('',(#1185),#1178,.T.);
#1187=CARTESIAN_POINT('',(-5.45E1,0.E0,-4.E0));
#1188=DIRECTION('',(1.E0,0.E0,0.E0));
#1189=DIRECTION('',(0.E0,0.E0,1.E0));
#1190=AXIS2_PLACEMENT_3D('',#1187,#1188,#1189);
#1191=PLANE('',#1190);
#1192=ORIENTED_EDGE('',*,*,#1181,.F.);
#1193=ORIENTED_EDGE('',*,*,#756,.T.);
#1195=ORIENTED_EDGE('',*,*,#1194,.T.);
#1196=ORIENTED_EDGE('',*,*,#901,.F.);
#1197=EDGE_LOOP('',(#1192,#1193,#1195,#1196));
#1198=FACE_OUTER_BOUND('',#1197,.F.);
#1199=ADVANCED_FACE('',(#1198),#1191,.T.);
#1200=CARTESIAN_POINT('',(-5.45E1,0.E0,2.E0));
#1201=DIRECTION('',(0.E0,0.E0,-1.E0));
#1202=DIRECTION('',(1.E0,0.E0,0.E0));
#1203=AXIS2_PLACEMENT_3D('',#1200,#1201,#1202);
#1204=PLANE('',#1203);
#1205=ORIENTED_EDGE('',*,*,#1194,.F.);
#1206=ORIENTED_EDGE('',*,*,#754,.T.);
#1208=ORIENTED_EDGE('',*,*,#1207,.T.);
#1209=ORIENTED_EDGE('',*,*,#903,.F.);
#1210=EDGE_LOOP('',(#1205,#1206,#1208,#1209));
#1211=FACE_OUTER_BOUND('',#1210,.F.);
#1212=ADVANCED_FACE('',(#1211),#1204,.T.);
#1213=CARTESIAN_POINT('',(-5.25E1,0.E0,2.E0));
#1214=DIRECTION('',(-1.E0,0.E0,0.E0));
#1215=DIRECTION('',(0.E0,0.E0,-1.E0));
#1216=AXIS2_PLACEMENT_3D('',#1213,#1214,#1215);
#1217=PLANE('',#1216);
#1218=ORIENTED_EDGE('',*,*,#1207,.F.);
#1219=ORIENTED_EDGE('',*,*,#752,.T.);
#1221=ORIENTED_EDGE('',*,*,#1220,.T.);
#1222=ORIENTED_EDGE('',*,*,#905,.F.);
#1223=EDGE_LOOP('',(#1218,#1219,#1221,#1222));
#1224=FACE_OUTER_BOUND('',#1223,.F.);
#1225=ADVANCED_FACE('',(#1224),#1217,.T.);
#1226=CARTESIAN_POINT('',(-5.25E1,0.E0,-9.E0));
#1227=DIRECTION('',(0.E0,0.E0,1.E0));
#1228=DIRECTION('',(-1.E0,0.E0,0.E0));
#1229=AXIS2_PLACEMENT_3D('',#1226,#1227,#1228);
#1230=PLANE('',#1229);
#1231=ORIENTED_EDGE('',*,*,#1220,.F.);
#1232=ORIENTED_EDGE('',*,*,#750,.F.);
#1234=ORIENTED_EDGE('',*,*,#1233,.T.);
#1235=ORIENTED_EDGE('',*,*,#907,.T.);
#1236=EDGE_LOOP('',(#1231,#1232,#1234,#1235));
#1237=FACE_OUTER_BOUND('',#1236,.F.);
#1238=ADVANCED_FACE('',(#1237),#1230,.T.);
#1239=CARTESIAN_POINT('',(-7.75E1,0.E0,-3.5E1));
#1240=DIRECTION('',(-1.E0,0.E0,0.E0));
#1241=DIRECTION('',(0.E0,0.E0,1.E0));
#1242=AXIS2_PLACEMENT_3D('',#1239,#1240,#1241);
#1243=PLANE('',#1242);
#1244=ORIENTED_EDGE('',*,*,#1156,.T.);
#1245=ORIENTED_EDGE('',*,*,#933,.T.);
#1247=ORIENTED_EDGE('',*,*,#1246,.F.);
#1248=ORIENTED_EDGE('',*,*,#724,.F.);
#1249=EDGE_LOOP('',(#1244,#1245,#1247,#1248));
#1250=FACE_OUTER_BOUND('',#1249,.F.);
#1251=ADVANCED_FACE('',(#1250),#1243,.T.);
#1252=CARTESIAN_POINT('',(-7.75E1,0.E0,-3.5E1));
#1253=DIRECTION('',(-1.E0,0.E0,0.E0));
#1254=DIRECTION('',(0.E0,0.E0,1.E0));
#1255=AXIS2_PLACEMENT_3D('',#1252,#1253,#1254);
#1256=PLANE('',#1255);
#1257=ORIENTED_EDGE('',*,*,#1233,.F.);
#1258=ORIENTED_EDGE('',*,*,#748,.F.);
#1260=ORIENTED_EDGE('',*,*,#1259,.T.);
#1261=ORIENTED_EDGE('',*,*,#909,.T.);
#1262=EDGE_LOOP('',(#1257,#1258,#1260,#1261));
#1263=FACE_OUTER_BOUND('',#1262,.F.);
#1264=ADVANCED_FACE('',(#1263),#1256,.T.);
#1265=CARTESIAN_POINT('',(-7.75E1,0.E0,3.5E1));
#1266=DIRECTION('',(0.E0,0.E0,1.E0));
#1267=DIRECTION('',(1.E0,0.E0,0.E0));
#1268=AXIS2_PLACEMENT_3D('',#1265,#1266,#1267);
#1269=PLANE('',#1268);
#1270=ORIENTED_EDGE('',*,*,#726,.F.);
#1271=ORIENTED_EDGE('',*,*,#1246,.T.);
#1272=ORIENTED_EDGE('',*,*,#931,.T.);
#1274=ORIENTED_EDGE('',*,*,#1273,.F.);
#1275=EDGE_LOOP('',(#1270,#1271,#1272,#1274));
#1276=FACE_OUTER_BOUND('',#1275,.F.);
#1277=ADVANCED_FACE('',(#1276),#1269,.T.);
#1278=CARTESIAN_POINT('',(7.75E1,0.E0,3.5E1));
#1279=DIRECTION('',(1.E0,0.E0,0.E0));
#1280=DIRECTION('',(0.E0,0.E0,-1.E0));
#1281=AXIS2_PLACEMENT_3D('',#1278,#1279,#1280);
#1282=PLANE('',#1281);
#1284=ORIENTED_EDGE('',*,*,#1283,.F.);
#1285=ORIENTED_EDGE('',*,*,#728,.F.);
#1286=ORIENTED_EDGE('',*,*,#1273,.T.);
#1287=ORIENTED_EDGE('',*,*,#929,.T.);
#1288=EDGE_LOOP('',(#1284,#1285,#1286,#1287));
#1289=FACE_OUTER_BOUND('',#1288,.F.);
#1290=ADVANCED_FACE('',(#1289),#1282,.T.);
#1291=CARTESIAN_POINT('',(7.75E1,0.E0,3.5E1));
#1292=DIRECTION('',(1.E0,0.E0,0.E0));
#1293=DIRECTION('',(0.E0,0.E0,-1.E0));
#1294=AXIS2_PLACEMENT_3D('',#1291,#1292,#1293);
#1295=PLANE('',#1294);
#1297=ORIENTED_EDGE('',*,*,#1296,.T.);
#1298=ORIENTED_EDGE('',*,*,#913,.T.);
#1300=ORIENTED_EDGE('',*,*,#1299,.F.);
#1301=ORIENTED_EDGE('',*,*,#744,.F.);
#1302=EDGE_LOOP('',(#1297,#1298,#1300,#1301));
#1303=FACE_OUTER_BOUND('',#1302,.F.);
#1304=ADVANCED_FACE('',(#1303),#1295,.T.);
#1305=CARTESIAN_POINT('',(7.75E1,0.E0,-7.E0));
#1306=DIRECTION('',(0.E0,0.E0,1.E0));
#1307=DIRECTION('',(-1.E0,0.E0,0.E0));
#1308=AXIS2_PLACEMENT_3D('',#1305,#1306,#1307);
#1309=PLANE('',#1308);
#1310=ORIENTED_EDGE('',*,*,#927,.T.);
#1312=ORIENTED_EDGE('',*,*,#1311,.F.);
#1313=ORIENTED_EDGE('',*,*,#730,.T.);
#1314=ORIENTED_EDGE('',*,*,#1283,.T.);
#1315=EDGE_LOOP('',(#1310,#1312,#1313,#1314));
#1316=FACE_OUTER_BOUND('',#1315,.F.);
#1317=ADVANCED_FACE('',(#1316),#1309,.F.);
#1318=CARTESIAN_POINT('',(5.4E1,0.E0,-7.E0));
#1319=DIRECTION('',(1.E0,0.E0,0.E0));
#1320=DIRECTION('',(0.E0,0.E0,1.E0));
#1321=AXIS2_PLACEMENT_3D('',#1318,#1319,#1320);
#1322=PLANE('',#1321);
#1323=ORIENTED_EDGE('',*,*,#732,.F.);
#1324=ORIENTED_EDGE('',*,*,#1311,.T.);
#1325=ORIENTED_EDGE('',*,*,#925,.T.);
#1327=ORIENTED_EDGE('',*,*,#1326,.F.);
#1328=EDGE_LOOP('',(#1323,#1324,#1325,#1327));
#1329=FACE_OUTER_BOUND('',#1328,.F.);
#1330=ADVANCED_FACE('',(#1329),#1322,.F.);
#1331=CARTESIAN_POINT('',(5.4E1,0.E0,-4.E0));
#1332=DIRECTION('',(0.E0,0.E0,-1.E0));
#1333=DIRECTION('',(1.E0,0.E0,0.E0));
#1334=AXIS2_PLACEMENT_3D('',#1331,#1332,#1333);
#1335=PLANE('',#1334);
#1336=ORIENTED_EDGE('',*,*,#734,.F.);
#1337=ORIENTED_EDGE('',*,*,#1326,.T.);
#1338=ORIENTED_EDGE('',*,*,#923,.T.);
#1340=ORIENTED_EDGE('',*,*,#1339,.F.);
#1341=EDGE_LOOP('',(#1336,#1337,#1338,#1340));
#1342=FACE_OUTER_BOUND('',#1341,.F.);
#1343=ADVANCED_FACE('',(#1342),#1335,.F.);
#1344=CARTESIAN_POINT('',(5.45E1,0.E0,-4.E0));
#1345=DIRECTION('',(1.E0,0.E0,0.E0));
#1346=DIRECTION('',(0.E0,0.E0,1.E0));
#1347=AXIS2_PLACEMENT_3D('',#1344,#1345,#1346);
#1348=PLANE('',#1347);
#1349=ORIENTED_EDGE('',*,*,#736,.F.);
#1350=ORIENTED_EDGE('',*,*,#1339,.T.);
#1351=ORIENTED_EDGE('',*,*,#921,.T.);
#1353=ORIENTED_EDGE('',*,*,#1352,.F.);
#1354=EDGE_LOOP('',(#1349,#1350,#1351,#1353));
#1355=FACE_OUTER_BOUND('',#1354,.F.);
#1356=ADVANCED_FACE('',(#1355),#1348,.F.);
#1357=CARTESIAN_POINT('',(5.45E1,0.E0,2.E0));
#1358=DIRECTION('',(0.E0,0.E0,1.E0));
#1359=DIRECTION('',(-1.E0,0.E0,0.E0));
#1360=AXIS2_PLACEMENT_3D('',#1357,#1358,#1359);
#1361=PLANE('',#1360);
#1362=ORIENTED_EDGE('',*,*,#738,.F.);
#1363=ORIENTED_EDGE('',*,*,#1352,.T.);
#1364=ORIENTED_EDGE('',*,*,#919,.T.);
#1366=ORIENTED_EDGE('',*,*,#1365,.F.);
#1367=EDGE_LOOP('',(#1362,#1363,#1364,#1366));
#1368=FACE_OUTER_BOUND('',#1367,.F.);
#1369=ADVANCED_FACE('',(#1368),#1361,.F.);
#1370=CARTESIAN_POINT('',(5.25E1,0.E0,2.E0));
#1371=DIRECTION('',(-1.E0,0.E0,0.E0));
#1372=DIRECTION('',(0.E0,0.E0,-1.E0));
#1373=AXIS2_PLACEMENT_3D('',#1370,#1371,#1372);
#1374=PLANE('',#1373);
#1375=ORIENTED_EDGE('',*,*,#740,.F.);
#1376=ORIENTED_EDGE('',*,*,#1365,.T.);
#1377=ORIENTED_EDGE('',*,*,#917,.T.);
#1379=ORIENTED_EDGE('',*,*,#1378,.F.);
#1380=EDGE_LOOP('',(#1375,#1376,#1377,#1379));
#1381=FACE_OUTER_BOUND('',#1380,.F.);
#1382=ADVANCED_FACE('',(#1381),#1374,.F.);
#1383=CARTESIAN_POINT('',(5.25E1,0.E0,-9.E0));
#1384=DIRECTION('',(0.E0,0.E0,-1.E0));
#1385=DIRECTION('',(1.E0,0.E0,0.E0));
#1386=AXIS2_PLACEMENT_3D('',#1383,#1384,#1385);
#1387=PLANE('',#1386);
#1388=ORIENTED_EDGE('',*,*,#742,.T.);
#1389=ORIENTED_EDGE('',*,*,#1378,.T.);
#1390=ORIENTED_EDGE('',*,*,#915,.F.);
#1391=ORIENTED_EDGE('',*,*,#1296,.F.);
#1392=EDGE_LOOP('',(#1388,#1389,#1390,#1391));
#1393=FACE_OUTER_BOUND('',#1392,.F.);
#1394=ADVANCED_FACE('',(#1393),#1387,.F.);
#1395=CARTESIAN_POINT('',(7.75E1,0.E0,-3.5E1));
#1396=DIRECTION('',(0.E0,0.E0,-1.E0));
#1397=DIRECTION('',(-1.E0,0.E0,0.E0));
#1398=AXIS2_PLACEMENT_3D('',#1395,#1396,#1397);
#1399=PLANE('',#1398);
#1400=ORIENTED_EDGE('',*,*,#746,.F.);
#1401=ORIENTED_EDGE('',*,*,#1299,.T.);
#1402=ORIENTED_EDGE('',*,*,#911,.T.);
#1403=ORIENTED_EDGE('',*,*,#1259,.F.);
#1404=EDGE_LOOP('',(#1400,#1401,#1402,#1403));
#1405=FACE_OUTER_BOUND('',#1404,.F.);
#1406=ADVANCED_FACE('',(#1405),#1399,.T.);
#1407=CARTESIAN_POINT('',(-3.75E1,0.E0,-2.3E1));
#1408=DIRECTION('',(0.E0,1.E0,0.E0));
#1409=DIRECTION('',(1.E0,0.E0,0.E0));
#1410=AXIS2_PLACEMENT_3D('',#1407,#1408,#1409);
#1411=CYLINDRICAL_SURFACE('',#1410,2.75E0);
#1412=ORIENTED_EDGE('',*,*,#834,.F.);
#1413=ORIENTED_EDGE('',*,*,#817,.F.);
#1414=ORIENTED_EDGE('',*,*,#802,.F.);
#1415=ORIENTED_EDGE('',*,*,#814,.T.);
#1416=EDGE_LOOP('',(#1412,#1413,#1414,#1415));
#1417=FACE_OUTER_BOUND('',#1416,.F.);
#1418=ADVANCED_FACE('',(#1417),#1411,.F.);
#1419=CARTESIAN_POINT('',(3.75E1,0.E0,-2.3E1));
#1420=DIRECTION('',(0.E0,1.E0,0.E0));
#1421=DIRECTION('',(1.E0,0.E0,0.E0));
#1422=AXIS2_PLACEMENT_3D('',#1419,#1420,#1421);
#1423=CYLINDRICAL_SURFACE('',#1422,2.75E0);
#1424=ORIENTED_EDGE('',*,*,#850,.F.);
#1426=ORIENTED_EDGE('',*,*,#1425,.F.);
#1427=ORIENTED_EDGE('',*,*,#764,.F.);
#1429=ORIENTED_EDGE('',*,*,#1428,.T.);
#1430=EDGE_LOOP('',(#1424,#1426,#1427,#1429));
#1431=FACE_OUTER_BOUND('',#1430,.F.);
#1432=ADVANCED_FACE('',(#1431),#1423,.F.);
#1433=CARTESIAN_POINT('',(3.75E1,0.E0,-2.3E1));
#1434=DIRECTION('',(0.E0,1.E0,0.E0));
#1435=DIRECTION('',(1.E0,0.E0,0.E0));
#1436=AXIS2_PLACEMENT_3D('',#1433,#1434,#1435);
#1437=CYLINDRICAL_SURFACE('',#1436,2.75E0);
#1438=ORIENTED_EDGE('',*,*,#852,.F.);
#1439=ORIENTED_EDGE('',*,*,#1428,.F.);
#1440=ORIENTED_EDGE('',*,*,#766,.F.);
#1441=ORIENTED_EDGE('',*,*,#1425,.T.);
#1442=EDGE_LOOP('',(#1438,#1439,#1440,#1441));
#1443=FACE_OUTER_BOUND('',#1442,.F.);
#1444=ADVANCED_FACE('',(#1443),#1437,.F.);
#1445=CARTESIAN_POINT('',(0.E0,0.E0,1.7E1));
#1446=DIRECTION('',(0.E0,1.E0,0.E0));
#1447=DIRECTION('',(1.E0,0.E0,0.E0));
#1448=AXIS2_PLACEMENT_3D('',#1445,#1446,#1447);
#1449=CYLINDRICAL_SURFACE('',#1448,2.75E0);
#1451=ORIENTED_EDGE('',*,*,#1450,.T.);
#1453=ORIENTED_EDGE('',*,*,#1452,.T.);
#1454=ORIENTED_EDGE('',*,*,#868,.F.);
#1456=ORIENTED_EDGE('',*,*,#1455,.F.);
#1457=EDGE_LOOP('',(#1451,#1453,#1454,#1456));
#1458=FACE_OUTER_BOUND('',#1457,.F.);
#1459=ADVANCED_FACE('',(#1458),#1449,.F.);
#1460=CARTESIAN_POINT('',(0.E0,2.E0,0.E0));
#1461=DIRECTION('',(0.E0,-1.E0,0.E0));
#1462=DIRECTION('',(-1.E0,0.E0,0.E0));
#1463=AXIS2_PLACEMENT_3D('',#1460,#1461,#1462);
#1464=PLANE('',#1463);
#1466=ORIENTED_EDGE('',*,*,#1465,.F.);
#1468=ORIENTED_EDGE('',*,*,#1467,.F.);
#1469=EDGE_LOOP('',(#1466,#1468));
#1470=FACE_OUTER_BOUND('',#1469,.F.);
#1471=ORIENTED_EDGE('',*,*,#1450,.F.);
#1473=ORIENTED_EDGE('',*,*,#1472,.F.);
#1474=EDGE_LOOP('',(#1471,#1473));
#1475=FACE_BOUND('',#1474,.F.);
#1476=ADVANCED_FACE('',(#1470,#1475),#1464,.T.);
#1477=CARTESIAN_POINT('',(0.E0,0.E0,1.7E1));
#1478=DIRECTION('',(0.E0,-1.E0,0.E0));
#1479=DIRECTION('',(-1.E0,0.E0,0.E0));
#1480=AXIS2_PLACEMENT_3D('',#1477,#1478,#1479);
#1481=CYLINDRICAL_SURFACE('',#1480,3.75E0);
#1482=ORIENTED_EDGE('',*,*,#794,.F.);
#1484=ORIENTED_EDGE('',*,*,#1483,.T.);
#1485=ORIENTED_EDGE('',*,*,#1465,.T.);
#1487=ORIENTED_EDGE('',*,*,#1486,.F.);
#1488=EDGE_LOOP('',(#1482,#1484,#1485,#1487));
#1489=FACE_OUTER_BOUND('',#1488,.F.);
#1490=ADVANCED_FACE('',(#1489),#1481,.F.);
#1491=CARTESIAN_POINT('',(0.E0,0.E0,1.7E1));
#1492=DIRECTION('',(0.E0,-1.E0,0.E0));
#1493=DIRECTION('',(-1.E0,0.E0,0.E0));
#1494=AXIS2_PLACEMENT_3D('',#1491,#1492,#1493);
#1495=CYLINDRICAL_SURFACE('',#1494,3.75E0);
#1496=ORIENTED_EDGE('',*,*,#796,.F.);
#1497=ORIENTED_EDGE('',*,*,#1486,.T.);
#1498=ORIENTED_EDGE('',*,*,#1467,.T.);
#1499=ORIENTED_EDGE('',*,*,#1483,.F.);
#1500=EDGE_LOOP('',(#1496,#1497,#1498,#1499));
#1501=FACE_OUTER_BOUND('',#1500,.F.);
#1502=ADVANCED_FACE('',(#1501),#1495,.F.);
#1503=CARTESIAN_POINT('',(0.E0,0.E0,1.7E1));
#1504=DIRECTION('',(0.E0,1.E0,0.E0));
#1505=DIRECTION('',(1.E0,0.E0,0.E0));
#1506=AXIS2_PLACEMENT_3D('',#1503,#1504,#1505);
#1507=CYLINDRICAL_SURFACE('',#1506,2.75E0);
#1508=ORIENTED_EDGE('',*,*,#1472,.T.);
#1509=ORIENTED_EDGE('',*,*,#1455,.T.);
#1510=ORIENTED_EDGE('',*,*,#870,.F.);
#1511=ORIENTED_EDGE('',*,*,#1452,.F.);
#1512=EDGE_LOOP('',(#1508,#1509,#1510,#1511));
#1513=FACE_OUTER_BOUND('',#1512,.F.);
#1514=ADVANCED_FACE('',(#1513),#1507,.F.);
#1518=DIMENSIONAL_EXPONENTS(0.E0,0.E0,0.E0,0.E0,0.E0,0.E0,0.E0);
#1520=PLANE_ANGLE_MEASURE_WITH_UNIT(PLANE_ANGLE_MEASURE(1.745329251994E-2),
#1519);
#1521=(CONVERSION_BASED_UNIT('DEGREE',#1520)NAMED_UNIT(*)PLANE_ANGLE_UNIT());
#1523=UNCERTAINTY_MEASURE_WITH_UNIT(LENGTH_MEASURE(1.E-2),#1517,'closure',
'Maximum model space distance between geometric entities at asserted connectivities');
#1524=(GEOMETRIC_REPRESENTATION_CONTEXT(3)GLOBAL_UNCERTAINTY_ASSIGNED_CONTEXT((
#1523))GLOBAL_UNIT_ASSIGNED_CONTEXT((#1517,#1521,#1522))REPRESENTATION_CONTEXT(
'ID1','3'));
#1526=APPLICATION_CONTEXT(
'CONFIGURATION CONTROLLED 3D DESIGNS OF MECHANICAL PARTS AND ASSEMBLIES');
#1527=APPLICATION_PROTOCOL_DEFINITION('international standard',
'config_control_design',1994,#1526);
#1528=DESIGN_CONTEXT('',#1526,'design');
#1529=MECHANICAL_CONTEXT('',#1526,'mechanical');
#1530=PRODUCT('MERGED_MOUNT_10_6','MERGED_MOUNT_10_6','NOT SPECIFIED',(#1529));
#1531=PRODUCT_DEFINITION_FORMATION_WITH_SPECIFIED_SOURCE('4','LAST_VERSION',
#1530,.MADE.);
#1535=PRODUCT_CATEGORY('part','');
#1536=PRODUCT_RELATED_PRODUCT_CATEGORY('detail','',(#1530));
#1537=PRODUCT_CATEGORY_RELATIONSHIP('','',#1535,#1536);
#1538=SECURITY_CLASSIFICATION_LEVEL('unclassified');
#1539=SECURITY_CLASSIFICATION('','',#1538);
#1540=CC_DESIGN_SECURITY_CLASSIFICATION(#1539,(#1531));
#1541=APPROVAL_STATUS('approved');
#1542=APPROVAL(#1541,'');
#1543=CC_DESIGN_APPROVAL(#1542,(#1539,#1531,#1532));
#1544=CALENDAR_DATE(126,8,10);
#1545=COORDINATED_UNIVERSAL_TIME_OFFSET(4,0,.BEHIND.);
#1546=LOCAL_TIME(13,32,1.3E1,#1545);
#1547=DATE_AND_TIME(#1544,#1546);
#1548=APPROVAL_DATE_TIME(#1547,#1542);
#1549=DATE_TIME_ROLE('creation_date');
#1550=CC_DESIGN_DATE_AND_TIME_ASSIGNMENT(#1547,#1549,(#1532));
#1551=DATE_TIME_ROLE('classification_date');
#1552=CC_DESIGN_DATE_AND_TIME_ASSIGNMENT(#1547,#1551,(#1539));
#1553=PERSON('UNSPECIFIED','UNSPECIFIED',$,$,$,$);
#1554=ORGANIZATION('UNSPECIFIED','UNSPECIFIED','UNSPECIFIED');
#1555=PERSON_AND_ORGANIZATION(#1553,#1554);
#1556=APPROVAL_ROLE('approver');
#1557=APPROVAL_PERSON_ORGANIZATION(#1555,#1542,#1556);
#1558=PERSON_AND_ORGANIZATION_ROLE('creator');
#1559=CC_DESIGN_PERSON_AND_ORGANIZATION_ASSIGNMENT(#1555,#1558,(#1531,#1532));
#1560=PERSON_AND_ORGANIZATION_ROLE('design_supplier');
#1561=CC_DESIGN_PERSON_AND_ORGANIZATION_ASSIGNMENT(#1555,#1560,(#1531));
#1562=PERSON_AND_ORGANIZATION_ROLE('classification_officer');
#1563=CC_DESIGN_PERSON_AND_ORGANIZATION_ASSIGNMENT(#1555,#1562,(#1539));
#1564=PERSON_AND_ORGANIZATION_ROLE('design_owner');
#1565=CC_DESIGN_PERSON_AND_ORGANIZATION_ASSIGNMENT(#1555,#1564,(#1530));
#5=CIRCLE('',#4,2.75E0);
#10=CIRCLE('',#9,2.75E0);
#15=CIRCLE('',#14,2.75E0);
#20=CIRCLE('',#19,2.75E0);
#25=CIRCLE('',#24,3.45E0);
#30=CIRCLE('',#29,3.45E0);
#35=CIRCLE('',#34,3.45E0);
#40=CIRCLE('',#39,3.45E0);
#45=CIRCLE('',#44,3.45E0);
#50=CIRCLE('',#49,3.45E0);
#55=CIRCLE('',#54,3.45E0);
#60=CIRCLE('',#59,3.45E0);
#65=CIRCLE('',#64,3.75E0);
#70=CIRCLE('',#69,3.75E0);
#147=CIRCLE('',#146,2.75E0);
#156=CIRCLE('',#155,5.E0);
#161=CIRCLE('',#160,5.E0);
#166=CIRCLE('',#165,5.E0);
#171=CIRCLE('',#170,5.E0);
#176=CIRCLE('',#175,6.E0);
#181=CIRCLE('',#180,6.E0);
#190=CIRCLE('',#189,3.45E0);
#195=CIRCLE('',#194,3.45E0);
#200=CIRCLE('',#199,3.45E0);
#205=CIRCLE('',#204,3.45E0);
#210=CIRCLE('',#209,3.45E0);
#215=CIRCLE('',#214,3.45E0);
#220=CIRCLE('',#219,3.45E0);
#225=CIRCLE('',#224,3.45E0);
#230=CIRCLE('',#229,5.E0);
#235=CIRCLE('',#234,5.E0);
#240=CIRCLE('',#239,5.E0);
#245=CIRCLE('',#244,5.E0);
#250=CIRCLE('',#249,6.E0);
#255=CIRCLE('',#254,6.E0);
#480=CIRCLE('',#479,2.75E0);
#489=CIRCLE('',#488,2.75E0);
#498=CIRCLE('',#497,2.75E0);
#507=CIRCLE('',#506,2.75E0);
#516=CIRCLE('',#515,2.75E0);
#521=CIRCLE('',#520,3.75E0);
#526=CIRCLE('',#525,3.75E0);
#539=CIRCLE('',#538,2.75E0);
#548=CIRCLE('',#547,2.75E0);
#722=EDGE_CURVE('',#715,#687,#383,.T.);
#724=EDGE_CURVE('',#715,#571,#74,.T.);
#726=EDGE_CURVE('',#571,#572,#78,.T.);
#728=EDGE_CURVE('',#572,#667,#82,.T.);
#730=EDGE_CURVE('',#639,#667,#447,.T.);
#732=EDGE_CURVE('',#639,#640,#86,.T.);
#734=EDGE_CURVE('',#640,#642,#90,.T.);
#736=EDGE_CURVE('',#642,#644,#94,.T.);
#738=EDGE_CURVE('',#644,#646,#98,.T.);
#740=EDGE_CURVE('',#646,#648,#102,.T.);
#742=EDGE_CURVE('',#650,#648,#106,.T.);
#744=EDGE_CURVE('',#650,#567,#110,.T.);
#746=EDGE_CURVE('',#567,#568,#114,.T.);
#748=EDGE_CURVE('',#568,#710,#118,.T.);
#750=EDGE_CURVE('',#710,#707,#122,.T.);
#752=EDGE_CURVE('',#703,#707,#126,.T.);
#754=EDGE_CURVE('',#699,#703,#130,.T.);
#756=EDGE_CURVE('',#695,#699,#134,.T.);
#758=EDGE_CURVE('',#691,#695,#138,.T.);
#760=EDGE_CURVE('',#687,#691,#142,.T.);
#764=EDGE_CURVE('',#555,#556,#15,.T.);
#766=EDGE_CURVE('',#556,#555,#20,.T.);
#770=EDGE_CURVE('',#559,#560,#25,.T.);
#772=EDGE_CURVE('',#560,#559,#30,.T.);
#776=EDGE_CURVE('',#563,#564,#35,.T.);
#778=EDGE_CURVE('',#564,#563,#40,.T.);
#782=EDGE_CURVE('',#671,#672,#45,.T.);
#784=EDGE_CURVE('',#672,#671,#50,.T.);
#788=EDGE_CURVE('',#675,#676,#55,.T.);
#790=EDGE_CURVE('',#676,#675,#60,.T.);
#794=EDGE_CURVE('',#631,#632,#65,.T.);
#796=EDGE_CURVE('',#632,#631,#70,.T.);
#800=EDGE_CURVE('',#551,#552,#5,.T.);
#802=EDGE_CURVE('',#552,#551,#10,.T.);
#812=EDGE_CURVE('',#615,#616,#147,.T.);
#814=EDGE_CURVE('',#552,#615,#484,.T.);
#817=EDGE_CURVE('',#551,#616,#151,.T.);
#827=EDGE_CURVE('',#591,#592,#156,.T.);
#829=EDGE_CURVE('',#592,#591,#161,.T.);
#834=EDGE_CURVE('',#616,#615,#480,.T.);
#844=EDGE_CURVE('',#595,#596,#166,.T.);
#846=EDGE_CURVE('',#596,#595,#171,.T.);
#850=EDGE_CURVE('',#619,#620,#489,.T.);
#852=EDGE_CURVE('',#620,#619,#498,.T.);
#862=EDGE_CURVE('',#599,#600,#176,.T.);
#864=EDGE_CURVE('',#600,#599,#181,.T.);
#868=EDGE_CURVE('',#623,#624,#516,.T.);
#870=EDGE_CURVE('',#624,#623,#548,.T.);
#880=EDGE_CURVE('',#603,#604,#230,.T.);
#882=EDGE_CURVE('',#603,#591,#185,.T.);
#885=EDGE_CURVE('',#604,#592,#363,.T.);
#895=EDGE_CURVE('',#688,#716,#387,.T.);
#897=EDGE_CURVE('',#688,#692,#259,.T.);
#899=EDGE_CURVE('',#692,#696,#263,.T.);
#901=EDGE_CURVE('',#696,#700,#267,.T.);
#903=EDGE_CURVE('',#700,#704,#271,.T.);
#905=EDGE_CURVE('',#704,#708,#275,.T.);
#907=EDGE_CURVE('',#712,#708,#279,.T.);
#909=EDGE_CURVE('',#584,#712,#283,.T.);
#911=EDGE_CURVE('',#583,#584,#287,.T.);
#913=EDGE_CURVE('',#664,#583,#291,.T.);
#915=EDGE_CURVE('',#664,#662,#295,.T.);
#917=EDGE_CURVE('',#660,#662,#299,.T.);
#919=EDGE_CURVE('',#658,#660,#303,.T.);
#921=EDGE_CURVE('',#656,#658,#307,.T.);
#923=EDGE_CURVE('',#654,#656,#311,.T.);
#925=EDGE_CURVE('',#653,#654,#315,.T.);
#927=EDGE_CURVE('',#668,#653,#443,.T.);
#929=EDGE_CURVE('',#588,#668,#319,.T.);
#931=EDGE_CURVE('',#587,#588,#323,.T.);
#933=EDGE_CURVE('',#716,#587,#327,.T.);
#937=EDGE_CURVE('',#579,#580,#200,.T.);
#939=EDGE_CURVE('',#580,#579,#205,.T.);
#943=EDGE_CURVE('',#679,#680,#210,.T.);
#945=EDGE_CURVE('',#680,#679,#215,.T.);
#949=EDGE_CURVE('',#683,#684,#220,.T.);
#951=EDGE_CURVE('',#684,#683,#225,.T.);
#956=EDGE_CURVE('',#604,#603,#235,.T.);
#960=EDGE_CURVE('',#607,#608,#240,.T.);
#962=EDGE_CURVE('',#608,#607,#245,.T.);
#966=EDGE_CURVE('',#611,#612,#250,.T.);
#968=EDGE_CURVE('',#612,#611,#255,.T.);
#972=EDGE_CURVE('',#575,#576,#190,.T.);
#974=EDGE_CURVE('',#576,#575,#195,.T.);
#985=EDGE_CURVE('',#559,#575,#331,.T.);
#988=EDGE_CURVE('',#560,#576,#335,.T.);
#1011=EDGE_CURVE('',#563,#579,#339,.T.);
#1014=EDGE_CURVE('',#564,#580,#343,.T.);
#1037=EDGE_CURVE('',#671,#679,#347,.T.);
#1040=EDGE_CURVE('',#672,#680,#351,.T.);
#1063=EDGE_CURVE('',#675,#683,#355,.T.);
#1066=EDGE_CURVE('',#676,#684,#359,.T.);
#1101=EDGE_CURVE('',#607,#595,#367,.T.);
#1104=EDGE_CURVE('',#608,#596,#371,.T.);
#1127=EDGE_CURVE('',#611,#599,#375,.T.);
#1130=EDGE_CURVE('',#612,#600,#379,.T.);
#1153=EDGE_CURVE('',#687,#688,#391,.T.);
#1156=EDGE_CURVE('',#715,#716,#415,.T.);
#1168=EDGE_CURVE('',#691,#692,#395,.T.);
#1181=EDGE_CURVE('',#695,#696,#399,.T.);
#1194=EDGE_CURVE('',#699,#700,#403,.T.);
#1207=EDGE_CURVE('',#703,#704,#407,.T.);
#1220=EDGE_CURVE('',#707,#708,#411,.T.);
#1233=EDGE_CURVE('',#710,#712,#419,.T.);
#1246=EDGE_CURVE('',#571,#587,#427,.T.);
#1259=EDGE_CURVE('',#568,#584,#423,.T.);
#1273=EDGE_CURVE('',#572,#588,#435,.T.);
#1283=EDGE_CURVE('',#667,#668,#431,.T.);
#1296=EDGE_CURVE('',#650,#664,#439,.T.);
#1299=EDGE_CURVE('',#567,#583,#475,.T.);
#1311=EDGE_CURVE('',#639,#653,#451,.T.);
#1326=EDGE_CURVE('',#640,#654,#455,.T.);
#1339=EDGE_CURVE('',#642,#656,#459,.T.);
#1352=EDGE_CURVE('',#644,#658,#463,.T.);
#1365=EDGE_CURVE('',#646,#660,#467,.T.);
#1378=EDGE_CURVE('',#648,#662,#471,.T.);
#1425=EDGE_CURVE('',#556,#619,#502,.T.);
#1428=EDGE_CURVE('',#555,#620,#493,.T.);
#1450=EDGE_CURVE('',#635,#636,#507,.T.);
#1452=EDGE_CURVE('',#636,#624,#511,.T.);
#1455=EDGE_CURVE('',#635,#623,#543,.T.);
#1465=EDGE_CURVE('',#627,#628,#521,.T.);
#1467=EDGE_CURVE('',#628,#627,#526,.T.);
#1472=EDGE_CURVE('',#636,#635,#539,.T.);
#1483=EDGE_CURVE('',#631,#627,#530,.T.);
#1486=EDGE_CURVE('',#632,#628,#534,.T.);
#1515=CLOSED_SHELL('',(#806,#821,#838,#856,#874,#889,#978,#992,#1004,#1018,
#1030,#1044,#1056,#1070,#1082,#1094,#1108,#1120,#1134,#1146,#1160,#1173,#1186,
#1199,#1212,#1225,#1238,#1251,#1264,#1277,#1290,#1304,#1317,#1330,#1343,#1356,
#1369,#1382,#1394,#1406,#1418,#1432,#1444,#1459,#1476,#1490,#1502,#1514));
#1516=MANIFOLD_SOLID_BREP('',#1515);
#1517=(LENGTH_UNIT()NAMED_UNIT(*)SI_UNIT(.MILLI.,.METRE.));
#1519=(NAMED_UNIT(*)PLANE_ANGLE_UNIT()SI_UNIT($,.RADIAN.));
#1522=(NAMED_UNIT(*)SI_UNIT($,.STERADIAN.)SOLID_ANGLE_UNIT());
#1525=ADVANCED_BREP_SHAPE_REPRESENTATION('',(#1516),#1524);
#1532=PRODUCT_DEFINITION('design','',#1531,#1528);
#1533=PRODUCT_DEFINITION_SHAPE('','SHAPE FOR MERGED_MOUNT_10_6.',#1532);
#1534=SHAPE_DEFINITION_REPRESENTATION(#1533,#1525);
ENDSEC;
END-ISO-10303-21;
